ISO-10303-21;
HEADER;
FILE_DESCRIPTION(('FreeCAD Model'),'2;1');
FILE_NAME('Open CASCADE Shape Model','2025-11-22T02:20:23',(''),(''),
  'Open CASCADE STEP processor 7.8','FreeCAD','Unknown');
FILE_SCHEMA(('AUTOMOTIVE_DESIGN { 1 0 10303 214 1 1 1 1 }'));
ENDSEC;
DATA;
#1 = APPLICATION_PROTOCOL_DEFINITION('international standard',
  'automotive_design',2000,#2);
#2 = APPLICATION_CONTEXT(
  'core data for automotive mechanical design processes');
#3 = SHAPE_DEFINITION_REPRESENTATION(#4,#10);
#4 = PRODUCT_DEFINITION_SHAPE('','',#5);
#5 = PRODUCT_DEFINITION('design','',#6,#9);
#6 = PRODUCT_DEFINITION_FORMATION('','',#7);
#7 = PRODUCT('Cuerpo','Cuerpo','',(#8));
#8 = PRODUCT_CONTEXT('',#2,'mechanical');
#9 = PRODUCT_DEFINITION_CONTEXT('part definition',#2,'design');
#10 = ADVANCED_BREP_SHAPE_REPRESENTATION('',(#11,#15),#1102);
#11 = AXIS2_PLACEMENT_3D('',#12,#13,#14);
#12 = CARTESIAN_POINT('',(0.,0.,0.));
#13 = DIRECTION('',(0.,0.,1.));
#14 = DIRECTION('',(1.,0.,-0.));
#15 = MANIFOLD_SOLID_BREP('',#16);
#16 = CLOSED_SHELL('',(#17,#57,#133,#158,#205,#250,#267,#284,#296,#327,
    #344,#416,#440,#505,#581,#614,#646,#678,#690,#707,#724,#759,#788,
    #812,#837,#861,#886,#903,#928,#944,#954,#970,#1004,#1046,#1063,#1073
    ,#1083,#1092));
#17 = ADVANCED_FACE('',(#18),#52,.F.);
#18 = FACE_BOUND('',#19,.F.);
#19 = EDGE_LOOP('',(#20,#30,#38,#46));
#20 = ORIENTED_EDGE('',*,*,#21,.T.);
#21 = EDGE_CURVE('',#22,#24,#26,.T.);
#22 = VERTEX_POINT('',#23);
#23 = CARTESIAN_POINT('',(5.5,135.,-10.080935));
#24 = VERTEX_POINT('',#25);
#25 = CARTESIAN_POINT('',(5.5,140.55,-10.080935));
#26 = LINE('',#27,#28);
#27 = CARTESIAN_POINT('',(5.5,135.,-10.080935));
#28 = VECTOR('',#29,1.);
#29 = DIRECTION('',(0.,1.,-2.22044604925E-16));
#30 = ORIENTED_EDGE('',*,*,#31,.T.);
#31 = EDGE_CURVE('',#24,#32,#34,.T.);
#32 = VERTEX_POINT('',#33);
#33 = CARTESIAN_POINT('',(5.5,140.55,-20.080935));
#34 = LINE('',#35,#36);
#35 = CARTESIAN_POINT('',(5.5,140.55,-10.080935));
#36 = VECTOR('',#37,1.);
#37 = DIRECTION('',(0.,-2.22044604925E-16,-1.));
#38 = ORIENTED_EDGE('',*,*,#39,.F.);
#39 = EDGE_CURVE('',#40,#32,#42,.T.);
#40 = VERTEX_POINT('',#41);
#41 = CARTESIAN_POINT('',(5.5,135.,-20.080935));
#42 = LINE('',#43,#44);
#43 = CARTESIAN_POINT('',(5.5,135.,-20.080935));
#44 = VECTOR('',#45,1.);
#45 = DIRECTION('',(0.,1.,-2.22044604925E-16));
#46 = ORIENTED_EDGE('',*,*,#47,.F.);
#47 = EDGE_CURVE('',#22,#40,#48,.T.);
#48 = LINE('',#49,#50);
#49 = CARTESIAN_POINT('',(5.5,135.,-10.080935));
#50 = VECTOR('',#51,1.);
#51 = DIRECTION('',(0.,-2.22044604925E-16,-1.));
#52 = PLANE('',#53);
#53 = AXIS2_PLACEMENT_3D('',#54,#55,#56);
#54 = CARTESIAN_POINT('',(5.5,135.,-10.080935));
#55 = DIRECTION('',(-1.,0.,0.));
#56 = DIRECTION('',(0.,-2.22044604925E-16,-1.));
#57 = ADVANCED_FACE('',(#58,#117),#128,.F.);
#58 = FACE_BOUND('',#59,.F.);
#59 = EDGE_LOOP('',(#60,#70,#79,#87,#94,#95,#103,#111));
#60 = ORIENTED_EDGE('',*,*,#61,.T.);
#61 = EDGE_CURVE('',#62,#64,#66,.T.);
#62 = VERTEX_POINT('',#63);
#63 = CARTESIAN_POINT('',(-5.5,135.,-10.080935));
#64 = VERTEX_POINT('',#65);
#65 = CARTESIAN_POINT('',(-5.5,140.55,-10.080935));
#66 = LINE('',#67,#68);
#67 = CARTESIAN_POINT('',(-5.5,135.,-10.080935));
#68 = VECTOR('',#69,1.);
#69 = DIRECTION('',(0.,1.,-2.22044604925E-16));
#70 = ORIENTED_EDGE('',*,*,#71,.T.);
#71 = EDGE_CURVE('',#64,#72,#74,.T.);
#72 = VERTEX_POINT('',#73);
#73 = CARTESIAN_POINT('',(-5.E-02,146.,-10.080935));
#74 = CIRCLE('',#75,5.45);
#75 = AXIS2_PLACEMENT_3D('',#76,#77,#78);
#76 = CARTESIAN_POINT('',(-5.E-02,140.55,-10.080935));
#77 = DIRECTION('',(-0.,-2.22044604925E-16,-1.));
#78 = DIRECTION('',(0.,-1.,2.22044604925E-16));
#79 = ORIENTED_EDGE('',*,*,#80,.T.);
#80 = EDGE_CURVE('',#72,#81,#83,.T.);
#81 = VERTEX_POINT('',#82);
#82 = CARTESIAN_POINT('',(5.E-02,146.,-10.080935));
#83 = LINE('',#84,#85);
#84 = CARTESIAN_POINT('',(-5.5,146.,-10.080935));
#85 = VECTOR('',#86,1.);
#86 = DIRECTION('',(1.,0.,0.));
#87 = ORIENTED_EDGE('',*,*,#88,.F.);
#88 = EDGE_CURVE('',#24,#81,#89,.T.);
#89 = CIRCLE('',#90,5.45);
#90 = AXIS2_PLACEMENT_3D('',#91,#92,#93);
#91 = CARTESIAN_POINT('',(5.E-02,140.55,-10.080935));
#92 = DIRECTION('',(0.,2.22044604925E-16,1.));
#93 = DIRECTION('',(0.,1.,-2.22044604925E-16));
#94 = ORIENTED_EDGE('',*,*,#21,.F.);
#95 = ORIENTED_EDGE('',*,*,#96,.F.);
#96 = EDGE_CURVE('',#97,#22,#99,.T.);
#97 = VERTEX_POINT('',#98);
#98 = CARTESIAN_POINT('',(5.,135.,-10.080935));
#99 = LINE('',#100,#101);
#100 = CARTESIAN_POINT('',(-5.5,135.,-10.080935));
#101 = VECTOR('',#102,1.);
#102 = DIRECTION('',(1.,0.,0.));
#103 = ORIENTED_EDGE('',*,*,#104,.F.);
#104 = EDGE_CURVE('',#105,#97,#107,.T.);
#105 = VERTEX_POINT('',#106);
#106 = CARTESIAN_POINT('',(-5.,135.,-10.080935));
#107 = LINE('',#108,#109);
#108 = CARTESIAN_POINT('',(-5.5,135.,-10.080935));
#109 = VECTOR('',#110,1.);
#110 = DIRECTION('',(1.,0.,0.));
#111 = ORIENTED_EDGE('',*,*,#112,.F.);
#112 = EDGE_CURVE('',#62,#105,#113,.T.);
#113 = LINE('',#114,#115);
#114 = CARTESIAN_POINT('',(-5.5,135.,-10.080935));
#115 = VECTOR('',#116,1.);
#116 = DIRECTION('',(1.,0.,0.));
#117 = FACE_BOUND('',#118,.F.);
#118 = EDGE_LOOP('',(#119));
#119 = ORIENTED_EDGE('',*,*,#120,.T.);
#120 = EDGE_CURVE('',#121,#121,#123,.T.);
#121 = VERTEX_POINT('',#122);
#122 = CARTESIAN_POINT('',(-5.,140.576828,-10.080935));
#123 = CIRCLE('',#124,5.);
#124 = AXIS2_PLACEMENT_3D('',#125,#126,#127);
#125 = CARTESIAN_POINT('',(0.,140.576828,-10.080935));
#126 = DIRECTION('',(0.,-0.,1.));
#127 = DIRECTION('',(-1.,0.,0.));
#128 = PLANE('',#129);
#129 = AXIS2_PLACEMENT_3D('',#130,#131,#132);
#130 = CARTESIAN_POINT('',(-5.5,135.,-10.080935));
#131 = DIRECTION('',(0.,-2.22044604925E-16,-1.));
#132 = DIRECTION('',(1.,0.,0.));
#133 = ADVANCED_FACE('',(#134),#153,.T.);
#134 = FACE_BOUND('',#135,.F.);
#135 = EDGE_LOOP('',(#136,#137,#145,#152));
#136 = ORIENTED_EDGE('',*,*,#88,.T.);
#137 = ORIENTED_EDGE('',*,*,#138,.T.);
#138 = EDGE_CURVE('',#81,#139,#141,.T.);
#139 = VERTEX_POINT('',#140);
#140 = CARTESIAN_POINT('',(5.E-02,146.,-20.080935));
#141 = LINE('',#142,#143);
#142 = CARTESIAN_POINT('',(5.E-02,146.,-10.080935));
#143 = VECTOR('',#144,1.);
#144 = DIRECTION('',(0.,-2.22044604925E-16,-1.));
#145 = ORIENTED_EDGE('',*,*,#146,.F.);
#146 = EDGE_CURVE('',#32,#139,#147,.T.);
#147 = CIRCLE('',#148,5.45);
#148 = AXIS2_PLACEMENT_3D('',#149,#150,#151);
#149 = CARTESIAN_POINT('',(5.E-02,140.55,-20.080935));
#150 = DIRECTION('',(0.,2.22044604925E-16,1.));
#151 = DIRECTION('',(0.,1.,-2.22044604925E-16));
#152 = ORIENTED_EDGE('',*,*,#31,.F.);
#153 = CYLINDRICAL_SURFACE('',#154,5.45);
#154 = AXIS2_PLACEMENT_3D('',#155,#156,#157);
#155 = CARTESIAN_POINT('',(5.E-02,140.55,-10.080935));
#156 = DIRECTION('',(0.,-2.22044604925E-16,-1.));
#157 = DIRECTION('',(1.,0.,0.));
#158 = ADVANCED_FACE('',(#159),#200,.F.);
#159 = FACE_BOUND('',#160,.F.);
#160 = EDGE_LOOP('',(#161,#162,#170,#176,#177,#185,#193,#199));
#161 = ORIENTED_EDGE('',*,*,#47,.T.);
#162 = ORIENTED_EDGE('',*,*,#163,.T.);
#163 = EDGE_CURVE('',#40,#164,#166,.T.);
#164 = VERTEX_POINT('',#165);
#165 = CARTESIAN_POINT('',(-5.5,135.,-20.080935));
#166 = LINE('',#167,#168);
#167 = CARTESIAN_POINT('',(5.5,135.,-20.080935));
#168 = VECTOR('',#169,1.);
#169 = DIRECTION('',(-1.,0.,0.));
#170 = ORIENTED_EDGE('',*,*,#171,.T.);
#171 = EDGE_CURVE('',#164,#62,#172,.T.);
#172 = LINE('',#173,#174);
#173 = CARTESIAN_POINT('',(-5.5,135.,-20.080935));
#174 = VECTOR('',#175,1.);
#175 = DIRECTION('',(0.,2.22044604925E-16,1.));
#176 = ORIENTED_EDGE('',*,*,#112,.T.);
#177 = ORIENTED_EDGE('',*,*,#178,.F.);
#178 = EDGE_CURVE('',#179,#105,#181,.T.);
#179 = VERTEX_POINT('',#180);
#180 = CARTESIAN_POINT('',(-5.,135.,-20.));
#181 = LINE('',#182,#183);
#182 = CARTESIAN_POINT('',(-5.,135.,-20.));
#183 = VECTOR('',#184,1.);
#184 = DIRECTION('',(0.,2.22044604925E-16,1.));
#185 = ORIENTED_EDGE('',*,*,#186,.F.);
#186 = EDGE_CURVE('',#187,#179,#189,.T.);
#187 = VERTEX_POINT('',#188);
#188 = CARTESIAN_POINT('',(5.,135.,-20.));
#189 = LINE('',#190,#191);
#190 = CARTESIAN_POINT('',(5.,135.,-20.));
#191 = VECTOR('',#192,1.);
#192 = DIRECTION('',(-1.,0.,0.));
#193 = ORIENTED_EDGE('',*,*,#194,.F.);
#194 = EDGE_CURVE('',#97,#187,#195,.T.);
#195 = LINE('',#196,#197);
#196 = CARTESIAN_POINT('',(5.,135.,20.));
#197 = VECTOR('',#198,1.);
#198 = DIRECTION('',(0.,-2.22044604925E-16,-1.));
#199 = ORIENTED_EDGE('',*,*,#96,.T.);
#200 = PLANE('',#201);
#201 = AXIS2_PLACEMENT_3D('',#202,#203,#204);
#202 = CARTESIAN_POINT('',(0.,135.,-6.767073673906E-16));
#203 = DIRECTION('',(0.,1.,0.));
#204 = DIRECTION('',(0.,0.,1.));
#205 = ADVANCED_FACE('',(#206,#234),#245,.F.);
#206 = FACE_BOUND('',#207,.F.);
#207 = EDGE_LOOP('',(#208,#209,#210,#218,#227,#233));
#208 = ORIENTED_EDGE('',*,*,#39,.T.);
#209 = ORIENTED_EDGE('',*,*,#146,.T.);
#210 = ORIENTED_EDGE('',*,*,#211,.T.);
#211 = EDGE_CURVE('',#139,#212,#214,.T.);
#212 = VERTEX_POINT('',#213);
#213 = CARTESIAN_POINT('',(-5.E-02,146.,-20.080935));
#214 = LINE('',#215,#216);
#215 = CARTESIAN_POINT('',(5.5,146.,-20.080935));
#216 = VECTOR('',#217,1.);
#217 = DIRECTION('',(-1.,0.,0.));
#218 = ORIENTED_EDGE('',*,*,#219,.F.);
#219 = EDGE_CURVE('',#220,#212,#222,.T.);
#220 = VERTEX_POINT('',#221);
#221 = CARTESIAN_POINT('',(-5.5,140.55,-20.080935));
#222 = CIRCLE('',#223,5.45);
#223 = AXIS2_PLACEMENT_3D('',#224,#225,#226);
#224 = CARTESIAN_POINT('',(-5.E-02,140.55,-20.080935));
#225 = DIRECTION('',(-0.,-2.22044604925E-16,-1.));
#226 = DIRECTION('',(0.,-1.,2.22044604925E-16));
#227 = ORIENTED_EDGE('',*,*,#228,.F.);
#228 = EDGE_CURVE('',#164,#220,#229,.T.);
#229 = LINE('',#230,#231);
#230 = CARTESIAN_POINT('',(-5.5,135.,-20.080935));
#231 = VECTOR('',#232,1.);
#232 = DIRECTION('',(0.,1.,-2.22044604925E-16));
#233 = ORIENTED_EDGE('',*,*,#163,.F.);
#234 = FACE_BOUND('',#235,.F.);
#235 = EDGE_LOOP('',(#236));
#236 = ORIENTED_EDGE('',*,*,#237,.T.);
#237 = EDGE_CURVE('',#238,#238,#240,.T.);
#238 = VERTEX_POINT('',#239);
#239 = CARTESIAN_POINT('',(-5.,140.576828,-20.080935));
#240 = CIRCLE('',#241,5.);
#241 = AXIS2_PLACEMENT_3D('',#242,#243,#244);
#242 = CARTESIAN_POINT('',(0.,140.576828,-20.080935));
#243 = DIRECTION('',(0.,0.,-1.));
#244 = DIRECTION('',(-1.,0.,0.));
#245 = PLANE('',#246);
#246 = AXIS2_PLACEMENT_3D('',#247,#248,#249);
#247 = CARTESIAN_POINT('',(5.5,135.,-20.080935));
#248 = DIRECTION('',(0.,2.22044604925E-16,1.));
#249 = DIRECTION('',(-1.,0.,0.));
#250 = ADVANCED_FACE('',(#251),#262,.F.);
#251 = FACE_BOUND('',#252,.F.);
#252 = EDGE_LOOP('',(#253,#254,#260,#261));
#253 = ORIENTED_EDGE('',*,*,#228,.T.);
#254 = ORIENTED_EDGE('',*,*,#255,.T.);
#255 = EDGE_CURVE('',#220,#64,#256,.T.);
#256 = LINE('',#257,#258);
#257 = CARTESIAN_POINT('',(-5.5,140.55,-20.080935));
#258 = VECTOR('',#259,1.);
#259 = DIRECTION('',(0.,2.22044604925E-16,1.));
#260 = ORIENTED_EDGE('',*,*,#61,.F.);
#261 = ORIENTED_EDGE('',*,*,#171,.F.);
#262 = PLANE('',#263);
#263 = AXIS2_PLACEMENT_3D('',#264,#265,#266);
#264 = CARTESIAN_POINT('',(-5.5,135.,-20.080935));
#265 = DIRECTION('',(1.,0.,0.));
#266 = DIRECTION('',(0.,2.22044604925E-16,1.));
#267 = ADVANCED_FACE('',(#268),#279,.T.);
#268 = FACE_BOUND('',#269,.F.);
#269 = EDGE_LOOP('',(#270,#271,#277,#278));
#270 = ORIENTED_EDGE('',*,*,#219,.T.);
#271 = ORIENTED_EDGE('',*,*,#272,.T.);
#272 = EDGE_CURVE('',#212,#72,#273,.T.);
#273 = LINE('',#274,#275);
#274 = CARTESIAN_POINT('',(-5.E-02,146.,-20.080935));
#275 = VECTOR('',#276,1.);
#276 = DIRECTION('',(0.,2.22044604925E-16,1.));
#277 = ORIENTED_EDGE('',*,*,#71,.F.);
#278 = ORIENTED_EDGE('',*,*,#255,.F.);
#279 = CYLINDRICAL_SURFACE('',#280,5.45);
#280 = AXIS2_PLACEMENT_3D('',#281,#282,#283);
#281 = CARTESIAN_POINT('',(-5.E-02,140.55,-20.080935));
#282 = DIRECTION('',(0.,2.22044604925E-16,1.));
#283 = DIRECTION('',(-1.,0.,0.));
#284 = ADVANCED_FACE('',(#285),#291,.T.);
#285 = FACE_BOUND('',#286,.T.);
#286 = EDGE_LOOP('',(#287,#288,#289,#290));
#287 = ORIENTED_EDGE('',*,*,#211,.T.);
#288 = ORIENTED_EDGE('',*,*,#272,.T.);
#289 = ORIENTED_EDGE('',*,*,#80,.T.);
#290 = ORIENTED_EDGE('',*,*,#138,.T.);
#291 = PLANE('',#292);
#292 = AXIS2_PLACEMENT_3D('',#293,#294,#295);
#293 = CARTESIAN_POINT('',(0.,146.,-3.119198021566E-15));
#294 = DIRECTION('',(0.,1.,0.));
#295 = DIRECTION('',(0.,0.,1.));
#296 = ADVANCED_FACE('',(#297),#322,.T.);
#297 = FACE_BOUND('',#298,.T.);
#298 = EDGE_LOOP('',(#299,#307,#308,#316));
#299 = ORIENTED_EDGE('',*,*,#300,.T.);
#300 = EDGE_CURVE('',#301,#97,#303,.T.);
#301 = VERTEX_POINT('',#302);
#302 = CARTESIAN_POINT('',(5.,135.,10.080935));
#303 = LINE('',#304,#305);
#304 = CARTESIAN_POINT('',(5.,135.,20.));
#305 = VECTOR('',#306,1.);
#306 = DIRECTION('',(0.,-2.22044604925E-16,-1.));
#307 = ORIENTED_EDGE('',*,*,#104,.F.);
#308 = ORIENTED_EDGE('',*,*,#309,.T.);
#309 = EDGE_CURVE('',#105,#310,#312,.T.);
#310 = VERTEX_POINT('',#311);
#311 = CARTESIAN_POINT('',(-5.,135.,10.080935));
#312 = LINE('',#313,#314);
#313 = CARTESIAN_POINT('',(-5.,135.,-20.));
#314 = VECTOR('',#315,1.);
#315 = DIRECTION('',(0.,2.22044604925E-16,1.));
#316 = ORIENTED_EDGE('',*,*,#317,.T.);
#317 = EDGE_CURVE('',#310,#301,#318,.T.);
#318 = LINE('',#319,#320);
#319 = CARTESIAN_POINT('',(-5.5,135.,10.080935));
#320 = VECTOR('',#321,1.);
#321 = DIRECTION('',(1.,0.,0.));
#322 = PLANE('',#323);
#323 = AXIS2_PLACEMENT_3D('',#324,#325,#326);
#324 = CARTESIAN_POINT('',(0.,135.,-2.22044604925E-15));
#325 = DIRECTION('',(0.,1.,0.));
#326 = DIRECTION('',(0.,0.,1.));
#327 = ADVANCED_FACE('',(#328),#339,.F.);
#328 = FACE_BOUND('',#329,.T.);
#329 = EDGE_LOOP('',(#330,#336,#337,#338));
#330 = ORIENTED_EDGE('',*,*,#331,.F.);
#331 = EDGE_CURVE('',#238,#121,#332,.T.);
#332 = LINE('',#333,#334);
#333 = CARTESIAN_POINT('',(-5.,140.576828,-20.080935));
#334 = VECTOR('',#335,1.);
#335 = DIRECTION('',(6.498866485611E-17,0.,1.));
#336 = ORIENTED_EDGE('',*,*,#237,.T.);
#337 = ORIENTED_EDGE('',*,*,#331,.T.);
#338 = ORIENTED_EDGE('',*,*,#120,.T.);
#339 = CYLINDRICAL_SURFACE('',#340,5.);
#340 = AXIS2_PLACEMENT_3D('',#341,#342,#343);
#341 = CARTESIAN_POINT('',(0.,140.576828,-20.080935));
#342 = DIRECTION('',(0.,0.,1.));
#343 = DIRECTION('',(-1.,0.,0.));
#344 = ADVANCED_FACE('',(#345),#411,.T.);
#345 = FACE_BOUND('',#346,.T.);
#346 = EDGE_LOOP('',(#347,#357,#365,#373,#379,#380,#381,#389,#397,#405)
  );
#347 = ORIENTED_EDGE('',*,*,#348,.F.);
#348 = EDGE_CURVE('',#349,#351,#353,.T.);
#349 = VERTEX_POINT('',#350);
#350 = CARTESIAN_POINT('',(5.,-8.881784197001E-16,-10.));
#351 = VERTEX_POINT('',#352);
#352 = CARTESIAN_POINT('',(5.,-8.881784197001E-16,10.));
#353 = LINE('',#354,#355);
#354 = CARTESIAN_POINT('',(5.,-8.881784197001E-16,-10.));
#355 = VECTOR('',#356,1.);
#356 = DIRECTION('',(0.,0.,1.));
#357 = ORIENTED_EDGE('',*,*,#358,.F.);
#358 = EDGE_CURVE('',#359,#349,#361,.T.);
#359 = VERTEX_POINT('',#360);
#360 = CARTESIAN_POINT('',(5.,125.,-10.));
#361 = LINE('',#362,#363);
#362 = CARTESIAN_POINT('',(5.,5.,-10.));
#363 = VECTOR('',#364,1.);
#364 = DIRECTION('',(0.,-1.,0.));
#365 = ORIENTED_EDGE('',*,*,#366,.T.);
#366 = EDGE_CURVE('',#359,#367,#369,.T.);
#367 = VERTEX_POINT('',#368);
#368 = CARTESIAN_POINT('',(5.,125.,-20.));
#369 = LINE('',#370,#371);
#370 = CARTESIAN_POINT('',(5.,125.,20.));
#371 = VECTOR('',#372,1.);
#372 = DIRECTION('',(0.,-2.22044604925E-16,-1.));
#373 = ORIENTED_EDGE('',*,*,#374,.T.);
#374 = EDGE_CURVE('',#367,#187,#375,.T.);
#375 = LINE('',#376,#377);
#376 = CARTESIAN_POINT('',(5.,125.,-20.));
#377 = VECTOR('',#378,1.);
#378 = DIRECTION('',(0.,1.,-2.22044604925E-16));
#379 = ORIENTED_EDGE('',*,*,#194,.F.);
#380 = ORIENTED_EDGE('',*,*,#300,.F.);
#381 = ORIENTED_EDGE('',*,*,#382,.F.);
#382 = EDGE_CURVE('',#383,#301,#385,.T.);
#383 = VERTEX_POINT('',#384);
#384 = CARTESIAN_POINT('',(5.,135.,20.));
#385 = LINE('',#386,#387);
#386 = CARTESIAN_POINT('',(5.,135.,20.));
#387 = VECTOR('',#388,1.);
#388 = DIRECTION('',(0.,-2.22044604925E-16,-1.));
#389 = ORIENTED_EDGE('',*,*,#390,.F.);
#390 = EDGE_CURVE('',#391,#383,#393,.T.);
#391 = VERTEX_POINT('',#392);
#392 = CARTESIAN_POINT('',(5.,125.,20.));
#393 = LINE('',#394,#395);
#394 = CARTESIAN_POINT('',(5.,125.,20.));
#395 = VECTOR('',#396,1.);
#396 = DIRECTION('',(0.,1.,-2.22044604925E-16));
#397 = ORIENTED_EDGE('',*,*,#398,.T.);
#398 = EDGE_CURVE('',#391,#399,#401,.T.);
#399 = VERTEX_POINT('',#400);
#400 = CARTESIAN_POINT('',(5.,125.,10.));
#401 = LINE('',#402,#403);
#402 = CARTESIAN_POINT('',(5.,125.,20.));
#403 = VECTOR('',#404,1.);
#404 = DIRECTION('',(0.,-2.22044604925E-16,-1.));
#405 = ORIENTED_EDGE('',*,*,#406,.T.);
#406 = EDGE_CURVE('',#399,#351,#407,.T.);
#407 = LINE('',#408,#409);
#408 = CARTESIAN_POINT('',(5.,5.,10.));
#409 = VECTOR('',#410,1.);
#410 = DIRECTION('',(0.,-1.,0.));
#411 = PLANE('',#412);
#412 = AXIS2_PLACEMENT_3D('',#413,#414,#415);
#413 = CARTESIAN_POINT('',(5.,72.222222222222,-1.973729821556E-17));
#414 = DIRECTION('',(1.,0.,0.));
#415 = DIRECTION('',(0.,0.,1.));
#416 = ADVANCED_FACE('',(#417),#435,.F.);
#417 = FACE_BOUND('',#418,.F.);
#418 = EDGE_LOOP('',(#419,#420,#421,#429));
#419 = ORIENTED_EDGE('',*,*,#374,.T.);
#420 = ORIENTED_EDGE('',*,*,#186,.T.);
#421 = ORIENTED_EDGE('',*,*,#422,.F.);
#422 = EDGE_CURVE('',#423,#179,#425,.T.);
#423 = VERTEX_POINT('',#424);
#424 = CARTESIAN_POINT('',(-5.,125.,-20.));
#425 = LINE('',#426,#427);
#426 = CARTESIAN_POINT('',(-5.,125.,-20.));
#427 = VECTOR('',#428,1.);
#428 = DIRECTION('',(0.,1.,-2.22044604925E-16));
#429 = ORIENTED_EDGE('',*,*,#430,.F.);
#430 = EDGE_CURVE('',#367,#423,#431,.T.);
#431 = LINE('',#432,#433);
#432 = CARTESIAN_POINT('',(5.,125.,-20.));
#433 = VECTOR('',#434,1.);
#434 = DIRECTION('',(-1.,0.,0.));
#435 = PLANE('',#436);
#436 = AXIS2_PLACEMENT_3D('',#437,#438,#439);
#437 = CARTESIAN_POINT('',(5.,125.,-20.));
#438 = DIRECTION('',(0.,2.22044604925E-16,1.));
#439 = DIRECTION('',(-1.,0.,0.));
#440 = ADVANCED_FACE('',(#441),#500,.T.);
#441 = FACE_BOUND('',#442,.T.);
#442 = EDGE_LOOP('',(#443,#453,#461,#469,#477,#483,#484,#485,#486,#494)
  );
#443 = ORIENTED_EDGE('',*,*,#444,.T.);
#444 = EDGE_CURVE('',#445,#447,#449,.T.);
#445 = VERTEX_POINT('',#446);
#446 = CARTESIAN_POINT('',(-5.,-8.881784197001E-16,-10.));
#447 = VERTEX_POINT('',#448);
#448 = CARTESIAN_POINT('',(-5.,-8.881784197001E-16,10.));
#449 = LINE('',#450,#451);
#450 = CARTESIAN_POINT('',(-5.,-8.881784197001E-16,-10.));
#451 = VECTOR('',#452,1.);
#452 = DIRECTION('',(0.,0.,1.));
#453 = ORIENTED_EDGE('',*,*,#454,.T.);
#454 = EDGE_CURVE('',#447,#455,#457,.T.);
#455 = VERTEX_POINT('',#456);
#456 = CARTESIAN_POINT('',(-5.,125.,10.));
#457 = LINE('',#458,#459);
#458 = CARTESIAN_POINT('',(-5.,5.,10.));
#459 = VECTOR('',#460,1.);
#460 = DIRECTION('',(0.,1.,0.));
#461 = ORIENTED_EDGE('',*,*,#462,.T.);
#462 = EDGE_CURVE('',#455,#463,#465,.T.);
#463 = VERTEX_POINT('',#464);
#464 = CARTESIAN_POINT('',(-5.,125.,20.));
#465 = LINE('',#466,#467);
#466 = CARTESIAN_POINT('',(-5.,125.,-20.));
#467 = VECTOR('',#468,1.);
#468 = DIRECTION('',(0.,2.22044604925E-16,1.));
#469 = ORIENTED_EDGE('',*,*,#470,.T.);
#470 = EDGE_CURVE('',#463,#471,#473,.T.);
#471 = VERTEX_POINT('',#472);
#472 = CARTESIAN_POINT('',(-5.,135.,20.));
#473 = LINE('',#474,#475);
#474 = CARTESIAN_POINT('',(-5.,125.,20.));
#475 = VECTOR('',#476,1.);
#476 = DIRECTION('',(0.,1.,-2.22044604925E-16));
#477 = ORIENTED_EDGE('',*,*,#478,.F.);
#478 = EDGE_CURVE('',#310,#471,#479,.T.);
#479 = LINE('',#480,#481);
#480 = CARTESIAN_POINT('',(-5.,135.,-20.));
#481 = VECTOR('',#482,1.);
#482 = DIRECTION('',(0.,2.22044604925E-16,1.));
#483 = ORIENTED_EDGE('',*,*,#309,.F.);
#484 = ORIENTED_EDGE('',*,*,#178,.F.);
#485 = ORIENTED_EDGE('',*,*,#422,.F.);
#486 = ORIENTED_EDGE('',*,*,#487,.T.);
#487 = EDGE_CURVE('',#423,#488,#490,.T.);
#488 = VERTEX_POINT('',#489);
#489 = CARTESIAN_POINT('',(-5.,125.,-10.));
#490 = LINE('',#491,#492);
#491 = CARTESIAN_POINT('',(-5.,125.,-20.));
#492 = VECTOR('',#493,1.);
#493 = DIRECTION('',(0.,2.22044604925E-16,1.));
#494 = ORIENTED_EDGE('',*,*,#495,.F.);
#495 = EDGE_CURVE('',#445,#488,#496,.T.);
#496 = LINE('',#497,#498);
#497 = CARTESIAN_POINT('',(-5.,5.,-10.));
#498 = VECTOR('',#499,1.);
#499 = DIRECTION('',(0.,1.,0.));
#500 = PLANE('',#501);
#501 = AXIS2_PLACEMENT_3D('',#502,#503,#504);
#502 = CARTESIAN_POINT('',(-5.,72.222222222222,0.));
#503 = DIRECTION('',(-1.,-0.,-0.));
#504 = DIRECTION('',(0.,0.,-1.));
#505 = ADVANCED_FACE('',(#506,#565),#576,.T.);
#506 = FACE_BOUND('',#507,.T.);
#507 = EDGE_LOOP('',(#508,#518,#527,#535,#544,#552,#558,#559));
#508 = ORIENTED_EDGE('',*,*,#509,.T.);
#509 = EDGE_CURVE('',#510,#512,#514,.T.);
#510 = VERTEX_POINT('',#511);
#511 = CARTESIAN_POINT('',(-5.5,135.,10.080935));
#512 = VERTEX_POINT('',#513);
#513 = CARTESIAN_POINT('',(-5.5,140.55,10.080935));
#514 = LINE('',#515,#516);
#515 = CARTESIAN_POINT('',(-5.5,135.,10.080935));
#516 = VECTOR('',#517,1.);
#517 = DIRECTION('',(0.,1.,-2.22044604925E-16));
#518 = ORIENTED_EDGE('',*,*,#519,.T.);
#519 = EDGE_CURVE('',#512,#520,#522,.T.);
#520 = VERTEX_POINT('',#521);
#521 = CARTESIAN_POINT('',(-5.E-02,146.,10.080935));
#522 = CIRCLE('',#523,5.45);
#523 = AXIS2_PLACEMENT_3D('',#524,#525,#526);
#524 = CARTESIAN_POINT('',(-5.E-02,140.55,10.080935));
#525 = DIRECTION('',(0.,-2.22044604925E-16,-1.));
#526 = DIRECTION('',(0.,1.,-2.22044604925E-16));
#527 = ORIENTED_EDGE('',*,*,#528,.T.);
#528 = EDGE_CURVE('',#520,#529,#531,.T.);
#529 = VERTEX_POINT('',#530);
#530 = CARTESIAN_POINT('',(5.E-02,146.,10.080935));
#531 = LINE('',#532,#533);
#532 = CARTESIAN_POINT('',(-5.5,146.,10.080935));
#533 = VECTOR('',#534,1.);
#534 = DIRECTION('',(1.,0.,0.));
#535 = ORIENTED_EDGE('',*,*,#536,.F.);
#536 = EDGE_CURVE('',#537,#529,#539,.T.);
#537 = VERTEX_POINT('',#538);
#538 = CARTESIAN_POINT('',(5.5,140.55,10.080935));
#539 = CIRCLE('',#540,5.45);
#540 = AXIS2_PLACEMENT_3D('',#541,#542,#543);
#541 = CARTESIAN_POINT('',(5.E-02,140.55,10.080935));
#542 = DIRECTION('',(-0.,2.22044604925E-16,1.));
#543 = DIRECTION('',(0.,-1.,2.22044604925E-16));
#544 = ORIENTED_EDGE('',*,*,#545,.F.);
#545 = EDGE_CURVE('',#546,#537,#548,.T.);
#546 = VERTEX_POINT('',#547);
#547 = CARTESIAN_POINT('',(5.5,135.,10.080935));
#548 = LINE('',#549,#550);
#549 = CARTESIAN_POINT('',(5.5,135.,10.080935));
#550 = VECTOR('',#551,1.);
#551 = DIRECTION('',(0.,1.,-2.22044604925E-16));
#552 = ORIENTED_EDGE('',*,*,#553,.F.);
#553 = EDGE_CURVE('',#301,#546,#554,.T.);
#554 = LINE('',#555,#556);
#555 = CARTESIAN_POINT('',(-5.5,135.,10.080935));
#556 = VECTOR('',#557,1.);
#557 = DIRECTION('',(1.,0.,0.));
#558 = ORIENTED_EDGE('',*,*,#317,.F.);
#559 = ORIENTED_EDGE('',*,*,#560,.F.);
#560 = EDGE_CURVE('',#510,#310,#561,.T.);
#561 = LINE('',#562,#563);
#562 = CARTESIAN_POINT('',(-5.5,135.,10.080935));
#563 = VECTOR('',#564,1.);
#564 = DIRECTION('',(1.,0.,0.));
#565 = FACE_BOUND('',#566,.T.);
#566 = EDGE_LOOP('',(#567));
#567 = ORIENTED_EDGE('',*,*,#568,.T.);
#568 = EDGE_CURVE('',#569,#569,#571,.T.);
#569 = VERTEX_POINT('',#570);
#570 = CARTESIAN_POINT('',(-5.,140.576828,10.080935));
#571 = CIRCLE('',#572,5.);
#572 = AXIS2_PLACEMENT_3D('',#573,#574,#575);
#573 = CARTESIAN_POINT('',(0.,140.576828,10.080935));
#574 = DIRECTION('',(0.,-0.,1.));
#575 = DIRECTION('',(-1.,0.,0.));
#576 = PLANE('',#577);
#577 = AXIS2_PLACEMENT_3D('',#578,#579,#580);
#578 = CARTESIAN_POINT('',(-5.5,135.,10.080935));
#579 = DIRECTION('',(0.,-2.22044604925E-16,-1.));
#580 = DIRECTION('',(1.,0.,0.));
#581 = ADVANCED_FACE('',(#582),#609,.T.);
#582 = FACE_BOUND('',#583,.F.);
#583 = EDGE_LOOP('',(#584,#593,#601,#608));
#584 = ORIENTED_EDGE('',*,*,#585,.T.);
#585 = EDGE_CURVE('',#349,#586,#588,.T.);
#586 = VERTEX_POINT('',#587);
#587 = CARTESIAN_POINT('',(-1.194340119487E-15,-5.,-10.));
#588 = CIRCLE('',#589,5.);
#589 = AXIS2_PLACEMENT_3D('',#590,#591,#592);
#590 = CARTESIAN_POINT('',(8.881784197001E-16,-8.881784197001E-16,-10.)
  );
#591 = DIRECTION('',(-0.,-0.,-1.));
#592 = DIRECTION('',(0.,-1.,0.));
#593 = ORIENTED_EDGE('',*,*,#594,.T.);
#594 = EDGE_CURVE('',#586,#595,#597,.T.);
#595 = VERTEX_POINT('',#596);
#596 = CARTESIAN_POINT('',(-1.194340119487E-15,-5.,10.));
#597 = LINE('',#598,#599);
#598 = CARTESIAN_POINT('',(1.194340119487E-15,-5.,-10.));
#599 = VECTOR('',#600,1.);
#600 = DIRECTION('',(0.,0.,1.));
#601 = ORIENTED_EDGE('',*,*,#602,.F.);
#602 = EDGE_CURVE('',#351,#595,#603,.T.);
#603 = CIRCLE('',#604,5.);
#604 = AXIS2_PLACEMENT_3D('',#605,#606,#607);
#605 = CARTESIAN_POINT('',(8.881784197001E-16,-8.881784197001E-16,10.));
#606 = DIRECTION('',(-0.,-0.,-1.));
#607 = DIRECTION('',(0.,-1.,0.));
#608 = ORIENTED_EDGE('',*,*,#348,.F.);
#609 = CYLINDRICAL_SURFACE('',#610,5.);
#610 = AXIS2_PLACEMENT_3D('',#611,#612,#613);
#611 = CARTESIAN_POINT('',(8.881784197001E-16,-8.881784197001E-16,-10.)
  );
#612 = DIRECTION('',(0.,0.,1.));
#613 = DIRECTION('',(1.,0.,0.));
#614 = ADVANCED_FACE('',(#615),#641,.T.);
#615 = FACE_BOUND('',#616,.T.);
#616 = EDGE_LOOP('',(#617,#623,#624,#633,#640));
#617 = ORIENTED_EDGE('',*,*,#618,.T.);
#618 = EDGE_CURVE('',#488,#359,#619,.T.);
#619 = LINE('',#620,#621);
#620 = CARTESIAN_POINT('',(-5.,125.,-10.));
#621 = VECTOR('',#622,1.);
#622 = DIRECTION('',(1.,0.,0.));
#623 = ORIENTED_EDGE('',*,*,#358,.T.);
#624 = ORIENTED_EDGE('',*,*,#625,.F.);
#625 = EDGE_CURVE('',#626,#349,#628,.T.);
#626 = VERTEX_POINT('',#627);
#627 = CARTESIAN_POINT('',(-6.18E-13,5.,-10.));
#628 = CIRCLE('',#629,5.);
#629 = AXIS2_PLACEMENT_3D('',#630,#631,#632);
#630 = CARTESIAN_POINT('',(0.,0.,-10.));
#631 = DIRECTION('',(0.,0.,-1.));
#632 = DIRECTION('',(1.,0.,0.));
#633 = ORIENTED_EDGE('',*,*,#634,.F.);
#634 = EDGE_CURVE('',#445,#626,#635,.T.);
#635 = CIRCLE('',#636,5.);
#636 = AXIS2_PLACEMENT_3D('',#637,#638,#639);
#637 = CARTESIAN_POINT('',(0.,0.,-10.));
#638 = DIRECTION('',(0.,0.,-1.));
#639 = DIRECTION('',(1.,0.,0.));
#640 = ORIENTED_EDGE('',*,*,#495,.T.);
#641 = PLANE('',#642);
#642 = AXIS2_PLACEMENT_3D('',#643,#644,#645);
#643 = CARTESIAN_POINT('',(-5.2E-16,101.30962997597,-10.));
#644 = DIRECTION('',(-0.,-0.,-1.));
#645 = DIRECTION('',(-1.,0.,0.));
#646 = ADVANCED_FACE('',(#647),#673,.T.);
#647 = FACE_BOUND('',#648,.T.);
#648 = EDGE_LOOP('',(#649,#650,#656,#657,#666));
#649 = ORIENTED_EDGE('',*,*,#406,.F.);
#650 = ORIENTED_EDGE('',*,*,#651,.F.);
#651 = EDGE_CURVE('',#455,#399,#652,.T.);
#652 = LINE('',#653,#654);
#653 = CARTESIAN_POINT('',(-5.,125.,10.));
#654 = VECTOR('',#655,1.);
#655 = DIRECTION('',(1.,0.,0.));
#656 = ORIENTED_EDGE('',*,*,#454,.F.);
#657 = ORIENTED_EDGE('',*,*,#658,.T.);
#658 = EDGE_CURVE('',#447,#659,#661,.T.);
#659 = VERTEX_POINT('',#660);
#660 = CARTESIAN_POINT('',(0.,5.,10.));
#661 = CIRCLE('',#662,5.);
#662 = AXIS2_PLACEMENT_3D('',#663,#664,#665);
#663 = CARTESIAN_POINT('',(0.,0.,10.));
#664 = DIRECTION('',(0.,0.,-1.));
#665 = DIRECTION('',(1.,0.,0.));
#666 = ORIENTED_EDGE('',*,*,#667,.T.);
#667 = EDGE_CURVE('',#659,#351,#668,.T.);
#668 = CIRCLE('',#669,5.);
#669 = AXIS2_PLACEMENT_3D('',#670,#671,#672);
#670 = CARTESIAN_POINT('',(0.,0.,10.));
#671 = DIRECTION('',(0.,0.,-1.));
#672 = DIRECTION('',(1.,0.,0.));
#673 = PLANE('',#674);
#674 = AXIS2_PLACEMENT_3D('',#675,#676,#677);
#675 = CARTESIAN_POINT('',(-3.E-17,101.30962997597,10.));
#676 = DIRECTION('',(0.,0.,1.));
#677 = DIRECTION('',(1.,0.,0.));
#678 = ADVANCED_FACE('',(#679),#685,.F.);
#679 = FACE_BOUND('',#680,.F.);
#680 = EDGE_LOOP('',(#681,#682,#683,#684));
#681 = ORIENTED_EDGE('',*,*,#366,.T.);
#682 = ORIENTED_EDGE('',*,*,#430,.T.);
#683 = ORIENTED_EDGE('',*,*,#487,.T.);
#684 = ORIENTED_EDGE('',*,*,#618,.T.);
#685 = PLANE('',#686);
#686 = AXIS2_PLACEMENT_3D('',#687,#688,#689);
#687 = CARTESIAN_POINT('',(0.,125.,0.));
#688 = DIRECTION('',(0.,1.,0.));
#689 = DIRECTION('',(0.,0.,1.));
#690 = ADVANCED_FACE('',(#691),#702,.F.);
#691 = FACE_BOUND('',#692,.F.);
#692 = EDGE_LOOP('',(#693,#694,#695,#696));
#693 = ORIENTED_EDGE('',*,*,#398,.T.);
#694 = ORIENTED_EDGE('',*,*,#651,.F.);
#695 = ORIENTED_EDGE('',*,*,#462,.T.);
#696 = ORIENTED_EDGE('',*,*,#697,.T.);
#697 = EDGE_CURVE('',#463,#391,#698,.T.);
#698 = LINE('',#699,#700);
#699 = CARTESIAN_POINT('',(-5.,125.,20.));
#700 = VECTOR('',#701,1.);
#701 = DIRECTION('',(1.,0.,0.));
#702 = PLANE('',#703);
#703 = AXIS2_PLACEMENT_3D('',#704,#705,#706);
#704 = CARTESIAN_POINT('',(0.,125.,0.));
#705 = DIRECTION('',(0.,1.,0.));
#706 = DIRECTION('',(0.,0.,1.));
#707 = ADVANCED_FACE('',(#708),#719,.F.);
#708 = FACE_BOUND('',#709,.F.);
#709 = EDGE_LOOP('',(#710,#711,#717,#718));
#710 = ORIENTED_EDGE('',*,*,#470,.T.);
#711 = ORIENTED_EDGE('',*,*,#712,.T.);
#712 = EDGE_CURVE('',#471,#383,#713,.T.);
#713 = LINE('',#714,#715);
#714 = CARTESIAN_POINT('',(-5.,135.,20.));
#715 = VECTOR('',#716,1.);
#716 = DIRECTION('',(1.,0.,0.));
#717 = ORIENTED_EDGE('',*,*,#390,.F.);
#718 = ORIENTED_EDGE('',*,*,#697,.F.);
#719 = PLANE('',#720);
#720 = AXIS2_PLACEMENT_3D('',#721,#722,#723);
#721 = CARTESIAN_POINT('',(-5.,125.,20.));
#722 = DIRECTION('',(0.,-2.22044604925E-16,-1.));
#723 = DIRECTION('',(1.,0.,0.));
#724 = ADVANCED_FACE('',(#725),#754,.F.);
#725 = FACE_BOUND('',#726,.F.);
#726 = EDGE_LOOP('',(#727,#735,#743,#749,#750,#751,#752,#753));
#727 = ORIENTED_EDGE('',*,*,#728,.F.);
#728 = EDGE_CURVE('',#729,#510,#731,.T.);
#729 = VERTEX_POINT('',#730);
#730 = CARTESIAN_POINT('',(-5.5,135.,20.080935));
#731 = LINE('',#732,#733);
#732 = CARTESIAN_POINT('',(-5.5,135.,20.080935));
#733 = VECTOR('',#734,1.);
#734 = DIRECTION('',(0.,-2.22044604925E-16,-1.));
#735 = ORIENTED_EDGE('',*,*,#736,.F.);
#736 = EDGE_CURVE('',#737,#729,#739,.T.);
#737 = VERTEX_POINT('',#738);
#738 = CARTESIAN_POINT('',(5.5,135.,20.080935));
#739 = LINE('',#740,#741);
#740 = CARTESIAN_POINT('',(5.5,135.,20.080935));
#741 = VECTOR('',#742,1.);
#742 = DIRECTION('',(-1.,0.,0.));
#743 = ORIENTED_EDGE('',*,*,#744,.F.);
#744 = EDGE_CURVE('',#546,#737,#745,.T.);
#745 = LINE('',#746,#747);
#746 = CARTESIAN_POINT('',(5.5,135.,10.080935));
#747 = VECTOR('',#748,1.);
#748 = DIRECTION('',(0.,2.22044604925E-16,1.));
#749 = ORIENTED_EDGE('',*,*,#553,.F.);
#750 = ORIENTED_EDGE('',*,*,#382,.F.);
#751 = ORIENTED_EDGE('',*,*,#712,.F.);
#752 = ORIENTED_EDGE('',*,*,#478,.F.);
#753 = ORIENTED_EDGE('',*,*,#560,.F.);
#754 = PLANE('',#755);
#755 = AXIS2_PLACEMENT_3D('',#756,#757,#758);
#756 = CARTESIAN_POINT('',(0.,135.,-6.767073673906E-16));
#757 = DIRECTION('',(0.,1.,0.));
#758 = DIRECTION('',(0.,0.,1.));
#759 = ADVANCED_FACE('',(#760),#783,.T.);
#760 = FACE_BOUND('',#761,.T.);
#761 = EDGE_LOOP('',(#762,#769,#775,#782));
#762 = ORIENTED_EDGE('',*,*,#763,.T.);
#763 = EDGE_CURVE('',#445,#586,#764,.T.);
#764 = CIRCLE('',#765,5.);
#765 = AXIS2_PLACEMENT_3D('',#766,#767,#768);
#766 = CARTESIAN_POINT('',(-8.881784197001E-16,-8.881784197001E-16,-10.)
  );
#767 = DIRECTION('',(-0.,0.,1.));
#768 = DIRECTION('',(0.,-1.,0.));
#769 = ORIENTED_EDGE('',*,*,#770,.T.);
#770 = EDGE_CURVE('',#586,#595,#771,.T.);
#771 = LINE('',#772,#773);
#772 = CARTESIAN_POINT('',(-1.194340119487E-15,-5.,-10.));
#773 = VECTOR('',#774,1.);
#774 = DIRECTION('',(0.,0.,1.));
#775 = ORIENTED_EDGE('',*,*,#776,.F.);
#776 = EDGE_CURVE('',#447,#595,#777,.T.);
#777 = CIRCLE('',#778,5.);
#778 = AXIS2_PLACEMENT_3D('',#779,#780,#781);
#779 = CARTESIAN_POINT('',(-8.881784197001E-16,-8.881784197001E-16,10.)
  );
#780 = DIRECTION('',(-0.,0.,1.));
#781 = DIRECTION('',(0.,-1.,0.));
#782 = ORIENTED_EDGE('',*,*,#444,.F.);
#783 = CYLINDRICAL_SURFACE('',#784,5.);
#784 = AXIS2_PLACEMENT_3D('',#785,#786,#787);
#785 = CARTESIAN_POINT('',(-8.881784197001E-16,-8.881784197001E-16,-10.)
  );
#786 = DIRECTION('',(0.,0.,1.));
#787 = DIRECTION('',(-1.,0.,0.));
#788 = ADVANCED_FACE('',(#789),#807,.T.);
#789 = FACE_BOUND('',#790,.T.);
#790 = EDGE_LOOP('',(#791,#799,#805,#806));
#791 = ORIENTED_EDGE('',*,*,#792,.T.);
#792 = EDGE_CURVE('',#729,#793,#795,.T.);
#793 = VERTEX_POINT('',#794);
#794 = CARTESIAN_POINT('',(-5.5,140.55,20.080935));
#795 = LINE('',#796,#797);
#796 = CARTESIAN_POINT('',(-5.5,135.,20.080935));
#797 = VECTOR('',#798,1.);
#798 = DIRECTION('',(0.,1.,-2.22044604925E-16));
#799 = ORIENTED_EDGE('',*,*,#800,.T.);
#800 = EDGE_CURVE('',#793,#512,#801,.T.);
#801 = LINE('',#802,#803);
#802 = CARTESIAN_POINT('',(-5.5,140.55,20.080935));
#803 = VECTOR('',#804,1.);
#804 = DIRECTION('',(0.,-2.22044604925E-16,-1.));
#805 = ORIENTED_EDGE('',*,*,#509,.F.);
#806 = ORIENTED_EDGE('',*,*,#728,.F.);
#807 = PLANE('',#808);
#808 = AXIS2_PLACEMENT_3D('',#809,#810,#811);
#809 = CARTESIAN_POINT('',(-5.5,135.,20.080935));
#810 = DIRECTION('',(-1.,0.,0.));
#811 = DIRECTION('',(0.,-2.22044604925E-16,-1.));
#812 = ADVANCED_FACE('',(#813),#832,.T.);
#813 = FACE_BOUND('',#814,.T.);
#814 = EDGE_LOOP('',(#815,#824,#830,#831));
#815 = ORIENTED_EDGE('',*,*,#816,.T.);
#816 = EDGE_CURVE('',#793,#817,#819,.T.);
#817 = VERTEX_POINT('',#818);
#818 = CARTESIAN_POINT('',(-5.E-02,146.,20.080935));
#819 = CIRCLE('',#820,5.45);
#820 = AXIS2_PLACEMENT_3D('',#821,#822,#823);
#821 = CARTESIAN_POINT('',(-5.E-02,140.55,20.080935));
#822 = DIRECTION('',(0.,-2.22044604925E-16,-1.));
#823 = DIRECTION('',(0.,1.,-2.22044604925E-16));
#824 = ORIENTED_EDGE('',*,*,#825,.T.);
#825 = EDGE_CURVE('',#817,#520,#826,.T.);
#826 = LINE('',#827,#828);
#827 = CARTESIAN_POINT('',(-5.E-02,146.,20.080935));
#828 = VECTOR('',#829,1.);
#829 = DIRECTION('',(0.,-2.22044604925E-16,-1.));
#830 = ORIENTED_EDGE('',*,*,#519,.F.);
#831 = ORIENTED_EDGE('',*,*,#800,.F.);
#832 = CYLINDRICAL_SURFACE('',#833,5.45);
#833 = AXIS2_PLACEMENT_3D('',#834,#835,#836);
#834 = CARTESIAN_POINT('',(-5.E-02,140.55,20.080935));
#835 = DIRECTION('',(0.,-2.22044604925E-16,-1.));
#836 = DIRECTION('',(-1.,0.,0.));
#837 = ADVANCED_FACE('',(#838),#856,.T.);
#838 = FACE_BOUND('',#839,.T.);
#839 = EDGE_LOOP('',(#840,#841,#842,#850));
#840 = ORIENTED_EDGE('',*,*,#528,.F.);
#841 = ORIENTED_EDGE('',*,*,#825,.F.);
#842 = ORIENTED_EDGE('',*,*,#843,.F.);
#843 = EDGE_CURVE('',#844,#817,#846,.T.);
#844 = VERTEX_POINT('',#845);
#845 = CARTESIAN_POINT('',(5.E-02,146.,20.080935));
#846 = LINE('',#847,#848);
#847 = CARTESIAN_POINT('',(5.5,146.,20.080935));
#848 = VECTOR('',#849,1.);
#849 = DIRECTION('',(-1.,0.,0.));
#850 = ORIENTED_EDGE('',*,*,#851,.F.);
#851 = EDGE_CURVE('',#529,#844,#852,.T.);
#852 = LINE('',#853,#854);
#853 = CARTESIAN_POINT('',(5.E-02,146.,10.080935));
#854 = VECTOR('',#855,1.);
#855 = DIRECTION('',(0.,2.22044604925E-16,1.));
#856 = PLANE('',#857);
#857 = AXIS2_PLACEMENT_3D('',#858,#859,#860);
#858 = CARTESIAN_POINT('',(0.,146.,-3.119198021566E-15));
#859 = DIRECTION('',(0.,1.,0.));
#860 = DIRECTION('',(0.,0.,1.));
#861 = ADVANCED_FACE('',(#862),#881,.T.);
#862 = FACE_BOUND('',#863,.T.);
#863 = EDGE_LOOP('',(#864,#865,#866,#875));
#864 = ORIENTED_EDGE('',*,*,#536,.T.);
#865 = ORIENTED_EDGE('',*,*,#851,.T.);
#866 = ORIENTED_EDGE('',*,*,#867,.F.);
#867 = EDGE_CURVE('',#868,#844,#870,.T.);
#868 = VERTEX_POINT('',#869);
#869 = CARTESIAN_POINT('',(5.5,140.55,20.080935));
#870 = CIRCLE('',#871,5.45);
#871 = AXIS2_PLACEMENT_3D('',#872,#873,#874);
#872 = CARTESIAN_POINT('',(5.E-02,140.55,20.080935));
#873 = DIRECTION('',(-0.,2.22044604925E-16,1.));
#874 = DIRECTION('',(0.,-1.,2.22044604925E-16));
#875 = ORIENTED_EDGE('',*,*,#876,.F.);
#876 = EDGE_CURVE('',#537,#868,#877,.T.);
#877 = LINE('',#878,#879);
#878 = CARTESIAN_POINT('',(5.5,140.55,10.080935));
#879 = VECTOR('',#880,1.);
#880 = DIRECTION('',(0.,2.22044604925E-16,1.));
#881 = CYLINDRICAL_SURFACE('',#882,5.45);
#882 = AXIS2_PLACEMENT_3D('',#883,#884,#885);
#883 = CARTESIAN_POINT('',(5.E-02,140.55,10.080935));
#884 = DIRECTION('',(0.,2.22044604925E-16,1.));
#885 = DIRECTION('',(1.,0.,0.));
#886 = ADVANCED_FACE('',(#887),#898,.T.);
#887 = FACE_BOUND('',#888,.T.);
#888 = EDGE_LOOP('',(#889,#890,#891,#897));
#889 = ORIENTED_EDGE('',*,*,#545,.T.);
#890 = ORIENTED_EDGE('',*,*,#876,.T.);
#891 = ORIENTED_EDGE('',*,*,#892,.F.);
#892 = EDGE_CURVE('',#737,#868,#893,.T.);
#893 = LINE('',#894,#895);
#894 = CARTESIAN_POINT('',(5.5,135.,20.080935));
#895 = VECTOR('',#896,1.);
#896 = DIRECTION('',(0.,1.,-2.22044604925E-16));
#897 = ORIENTED_EDGE('',*,*,#744,.F.);
#898 = PLANE('',#899);
#899 = AXIS2_PLACEMENT_3D('',#900,#901,#902);
#900 = CARTESIAN_POINT('',(5.5,135.,10.080935));
#901 = DIRECTION('',(1.,0.,0.));
#902 = DIRECTION('',(0.,2.22044604925E-16,1.));
#903 = ADVANCED_FACE('',(#904),#923,.F.);
#904 = FACE_BOUND('',#905,.T.);
#905 = EDGE_LOOP('',(#906,#907,#915,#922));
#906 = ORIENTED_EDGE('',*,*,#568,.F.);
#907 = ORIENTED_EDGE('',*,*,#908,.T.);
#908 = EDGE_CURVE('',#569,#909,#911,.T.);
#909 = VERTEX_POINT('',#910);
#910 = CARTESIAN_POINT('',(-5.,140.576828,20.080935));
#911 = LINE('',#912,#913);
#912 = CARTESIAN_POINT('',(-5.,140.576828,-20.080935));
#913 = VECTOR('',#914,1.);
#914 = DIRECTION('',(6.498866485611E-17,0.,1.));
#915 = ORIENTED_EDGE('',*,*,#916,.T.);
#916 = EDGE_CURVE('',#909,#909,#917,.T.);
#917 = CIRCLE('',#918,5.);
#918 = AXIS2_PLACEMENT_3D('',#919,#920,#921);
#919 = CARTESIAN_POINT('',(0.,140.576828,20.080935));
#920 = DIRECTION('',(0.,-0.,1.));
#921 = DIRECTION('',(-1.,0.,0.));
#922 = ORIENTED_EDGE('',*,*,#908,.F.);
#923 = CYLINDRICAL_SURFACE('',#924,5.);
#924 = AXIS2_PLACEMENT_3D('',#925,#926,#927);
#925 = CARTESIAN_POINT('',(0.,140.576828,-20.080935));
#926 = DIRECTION('',(0.,0.,1.));
#927 = DIRECTION('',(-1.,0.,0.));
#928 = ADVANCED_FACE('',(#929),#939,.F.);
#929 = FACE_BOUND('',#930,.F.);
#930 = EDGE_LOOP('',(#931,#932));
#931 = ORIENTED_EDGE('',*,*,#585,.F.);
#932 = ORIENTED_EDGE('',*,*,#933,.T.);
#933 = EDGE_CURVE('',#349,#586,#934,.T.);
#934 = CIRCLE('',#935,5.);
#935 = AXIS2_PLACEMENT_3D('',#936,#937,#938);
#936 = CARTESIAN_POINT('',(0.,0.,-10.));
#937 = DIRECTION('',(0.,0.,-1.));
#938 = DIRECTION('',(1.,0.,0.));
#939 = PLANE('',#940);
#940 = AXIS2_PLACEMENT_3D('',#941,#942,#943);
#941 = CARTESIAN_POINT('',(0.,0.,-10.));
#942 = DIRECTION('',(0.,0.,1.));
#943 = DIRECTION('',(1.,0.,0.));
#944 = ADVANCED_FACE('',(#945),#949,.T.);
#945 = FACE_BOUND('',#946,.T.);
#946 = EDGE_LOOP('',(#947,#948));
#947 = ORIENTED_EDGE('',*,*,#594,.T.);
#948 = ORIENTED_EDGE('',*,*,#770,.F.);
#949 = PLANE('',#950);
#950 = AXIS2_PLACEMENT_3D('',#951,#952,#953);
#951 = CARTESIAN_POINT('',(0.,-5.,0.));
#952 = DIRECTION('',(-0.,-1.,-0.));
#953 = DIRECTION('',(0.,0.,-1.));
#954 = ADVANCED_FACE('',(#955),#965,.T.);
#955 = FACE_BOUND('',#956,.T.);
#956 = EDGE_LOOP('',(#957,#958));
#957 = ORIENTED_EDGE('',*,*,#602,.F.);
#958 = ORIENTED_EDGE('',*,*,#959,.T.);
#959 = EDGE_CURVE('',#351,#595,#960,.T.);
#960 = CIRCLE('',#961,5.);
#961 = AXIS2_PLACEMENT_3D('',#962,#963,#964);
#962 = CARTESIAN_POINT('',(0.,0.,10.));
#963 = DIRECTION('',(0.,0.,-1.));
#964 = DIRECTION('',(1.,0.,0.));
#965 = PLANE('',#966);
#966 = AXIS2_PLACEMENT_3D('',#967,#968,#969);
#967 = CARTESIAN_POINT('',(0.,0.,10.));
#968 = DIRECTION('',(0.,0.,1.));
#969 = DIRECTION('',(1.,0.,0.));
#970 = ADVANCED_FACE('',(#971),#999,.T.);
#971 = FACE_BOUND('',#972,.F.);
#972 = EDGE_LOOP('',(#973,#981,#982,#983,#990,#991,#992));
#973 = ORIENTED_EDGE('',*,*,#974,.F.);
#974 = EDGE_CURVE('',#349,#975,#977,.T.);
#975 = VERTEX_POINT('',#976);
#976 = CARTESIAN_POINT('',(5.,0.,-40.));
#977 = LINE('',#978,#979);
#978 = CARTESIAN_POINT('',(5.,0.,-10.));
#979 = VECTOR('',#980,1.);
#980 = DIRECTION('',(0.,0.,-1.));
#981 = ORIENTED_EDGE('',*,*,#625,.F.);
#982 = ORIENTED_EDGE('',*,*,#634,.F.);
#983 = ORIENTED_EDGE('',*,*,#984,.F.);
#984 = EDGE_CURVE('',#586,#445,#985,.T.);
#985 = CIRCLE('',#986,5.);
#986 = AXIS2_PLACEMENT_3D('',#987,#988,#989);
#987 = CARTESIAN_POINT('',(0.,0.,-10.));
#988 = DIRECTION('',(0.,0.,-1.));
#989 = DIRECTION('',(1.,0.,0.));
#990 = ORIENTED_EDGE('',*,*,#933,.F.);
#991 = ORIENTED_EDGE('',*,*,#974,.T.);
#992 = ORIENTED_EDGE('',*,*,#993,.T.);
#993 = EDGE_CURVE('',#975,#975,#994,.T.);
#994 = CIRCLE('',#995,5.);
#995 = AXIS2_PLACEMENT_3D('',#996,#997,#998);
#996 = CARTESIAN_POINT('',(0.,0.,-40.));
#997 = DIRECTION('',(0.,0.,-1.));
#998 = DIRECTION('',(1.,0.,0.));
#999 = CYLINDRICAL_SURFACE('',#1000,5.);
#1000 = AXIS2_PLACEMENT_3D('',#1001,#1002,#1003);
#1001 = CARTESIAN_POINT('',(0.,0.,-10.));
#1002 = DIRECTION('',(0.,0.,1.));
#1003 = DIRECTION('',(1.,0.,0.));
#1004 = ADVANCED_FACE('',(#1005),#1041,.T.);
#1005 = FACE_BOUND('',#1006,.F.);
#1006 = EDGE_LOOP('',(#1007,#1008,#1009,#1016,#1025,#1032,#1033,#1034));
#1007 = ORIENTED_EDGE('',*,*,#658,.T.);
#1008 = ORIENTED_EDGE('',*,*,#667,.T.);
#1009 = ORIENTED_EDGE('',*,*,#1010,.F.);
#1010 = EDGE_CURVE('',#1011,#351,#1013,.T.);
#1011 = VERTEX_POINT('',#1012);
#1012 = CARTESIAN_POINT('',(5.,0.,40.));
#1013 = B_SPLINE_CURVE_WITH_KNOTS('',1,(#1014,#1015),.UNSPECIFIED.,.F.,
  .F.,(2,2),(-40.,0.),.PIECEWISE_BEZIER_KNOTS.);
#1014 = CARTESIAN_POINT('',(5.,-1.22E-15,40.));
#1015 = CARTESIAN_POINT('',(5.,-1.22E-15,0.));
#1016 = ORIENTED_EDGE('',*,*,#1017,.T.);
#1017 = EDGE_CURVE('',#1011,#1018,#1020,.T.);
#1018 = VERTEX_POINT('',#1019);
#1019 = CARTESIAN_POINT('',(-5.,0.,40.));
#1020 = CIRCLE('',#1021,5.);
#1021 = AXIS2_PLACEMENT_3D('',#1022,#1023,#1024);
#1022 = CARTESIAN_POINT('',(0.,0.,40.));
#1023 = DIRECTION('',(0.,0.,1.));
#1024 = DIRECTION('',(1.,0.,0.));
#1025 = ORIENTED_EDGE('',*,*,#1026,.T.);
#1026 = EDGE_CURVE('',#1018,#1011,#1027,.T.);
#1027 = CIRCLE('',#1028,5.);
#1028 = AXIS2_PLACEMENT_3D('',#1029,#1030,#1031);
#1029 = CARTESIAN_POINT('',(0.,0.,40.));
#1030 = DIRECTION('',(0.,0.,1.));
#1031 = DIRECTION('',(1.,0.,0.));
#1032 = ORIENTED_EDGE('',*,*,#1010,.T.);
#1033 = ORIENTED_EDGE('',*,*,#959,.T.);
#1034 = ORIENTED_EDGE('',*,*,#1035,.T.);
#1035 = EDGE_CURVE('',#595,#447,#1036,.T.);
#1036 = CIRCLE('',#1037,5.);
#1037 = AXIS2_PLACEMENT_3D('',#1038,#1039,#1040);
#1038 = CARTESIAN_POINT('',(0.,0.,10.));
#1039 = DIRECTION('',(0.,0.,-1.));
#1040 = DIRECTION('',(1.,0.,0.));
#1041 = CYLINDRICAL_SURFACE('',#1042,5.);
#1042 = AXIS2_PLACEMENT_3D('',#1043,#1044,#1045);
#1043 = CARTESIAN_POINT('',(0.,0.,0.));
#1044 = DIRECTION('',(-0.,-0.,-1.));
#1045 = DIRECTION('',(1.,0.,0.));
#1046 = ADVANCED_FACE('',(#1047,#1055),#1058,.T.);
#1047 = FACE_BOUND('',#1048,.T.);
#1048 = EDGE_LOOP('',(#1049,#1050,#1051,#1052,#1053,#1054));
#1049 = ORIENTED_EDGE('',*,*,#892,.T.);
#1050 = ORIENTED_EDGE('',*,*,#867,.T.);
#1051 = ORIENTED_EDGE('',*,*,#843,.T.);
#1052 = ORIENTED_EDGE('',*,*,#816,.F.);
#1053 = ORIENTED_EDGE('',*,*,#792,.F.);
#1054 = ORIENTED_EDGE('',*,*,#736,.F.);
#1055 = FACE_BOUND('',#1056,.T.);
#1056 = EDGE_LOOP('',(#1057));
#1057 = ORIENTED_EDGE('',*,*,#916,.F.);
#1058 = PLANE('',#1059);
#1059 = AXIS2_PLACEMENT_3D('',#1060,#1061,#1062);
#1060 = CARTESIAN_POINT('',(5.5,135.,20.080935));
#1061 = DIRECTION('',(0.,2.22044604925E-16,1.));
#1062 = DIRECTION('',(-1.,0.,0.));
#1063 = ADVANCED_FACE('',(#1064),#1068,.F.);
#1064 = FACE_BOUND('',#1065,.F.);
#1065 = EDGE_LOOP('',(#1066,#1067));
#1066 = ORIENTED_EDGE('',*,*,#763,.T.);
#1067 = ORIENTED_EDGE('',*,*,#984,.T.);
#1068 = PLANE('',#1069);
#1069 = AXIS2_PLACEMENT_3D('',#1070,#1071,#1072);
#1070 = CARTESIAN_POINT('',(0.,0.,-10.));
#1071 = DIRECTION('',(0.,0.,1.));
#1072 = DIRECTION('',(1.,0.,0.));
#1073 = ADVANCED_FACE('',(#1074),#1078,.T.);
#1074 = FACE_BOUND('',#1075,.T.);
#1075 = EDGE_LOOP('',(#1076,#1077));
#1076 = ORIENTED_EDGE('',*,*,#776,.T.);
#1077 = ORIENTED_EDGE('',*,*,#1035,.T.);
#1078 = PLANE('',#1079);
#1079 = AXIS2_PLACEMENT_3D('',#1080,#1081,#1082);
#1080 = CARTESIAN_POINT('',(0.,0.,10.));
#1081 = DIRECTION('',(0.,0.,1.));
#1082 = DIRECTION('',(1.,0.,0.));
#1083 = ADVANCED_FACE('',(#1084),#1087,.F.);
#1084 = FACE_BOUND('',#1085,.T.);
#1085 = EDGE_LOOP('',(#1086));
#1086 = ORIENTED_EDGE('',*,*,#993,.T.);
#1087 = PLANE('',#1088);
#1088 = AXIS2_PLACEMENT_3D('',#1089,#1090,#1091);
#1089 = CARTESIAN_POINT('',(-2.7E-16,-7.E-17,-40.));
#1090 = DIRECTION('',(0.,0.,1.));
#1091 = DIRECTION('',(1.,0.,0.));
#1092 = ADVANCED_FACE('',(#1093),#1097,.T.);
#1093 = FACE_BOUND('',#1094,.T.);
#1094 = EDGE_LOOP('',(#1095,#1096));
#1095 = ORIENTED_EDGE('',*,*,#1017,.T.);
#1096 = ORIENTED_EDGE('',*,*,#1026,.T.);
#1097 = PLANE('',#1098);
#1098 = AXIS2_PLACEMENT_3D('',#1099,#1100,#1101);
#1099 = CARTESIAN_POINT('',(-2.7E-16,7.E-17,40.));
#1100 = DIRECTION('',(0.,0.,1.));
#1101 = DIRECTION('',(1.,0.,0.));
#1102 = ( GEOMETRIC_REPRESENTATION_CONTEXT(3) 
GLOBAL_UNCERTAINTY_ASSIGNED_CONTEXT((#1106)) 
GLOBAL_UNIT_ASSIGNED_CONTEXT((#1103,#1104,#1105)) REPRESENTATION_CONTEXT
('Context #1','3D Context with UNIT and UNCERTAINTY') );
#1103 = ( LENGTH_UNIT() NAMED_UNIT(*) SI_UNIT(.MILLI.,.METRE.) );
#1104 = ( NAMED_UNIT(*) PLANE_ANGLE_UNIT() SI_UNIT($,.RADIAN.) );
#1105 = ( NAMED_UNIT(*) SI_UNIT($,.STERADIAN.) SOLID_ANGLE_UNIT() );
#1106 = UNCERTAINTY_MEASURE_WITH_UNIT(LENGTH_MEASURE(1.E-07),#1103,
  'distance_accuracy_value','confusion accuracy');
#1107 = PRODUCT_RELATED_PRODUCT_CATEGORY('part',$,(#7));
#1108 = MECHANICAL_DESIGN_GEOMETRIC_PRESENTATION_REPRESENTATION('',(
    #1109),#1102);
#1109 = STYLED_ITEM('color',(#1110),#15);
#1110 = PRESENTATION_STYLE_ASSIGNMENT((#1111,#1117));
#1111 = SURFACE_STYLE_USAGE(.BOTH.,#1112);
#1112 = SURFACE_SIDE_STYLE('',(#1113));
#1113 = SURFACE_STYLE_FILL_AREA(#1114);
#1114 = FILL_AREA_STYLE('',(#1115));
#1115 = FILL_AREA_STYLE_COLOUR('',#1116);
#1116 = COLOUR_RGB('',0.447058818107,0.474509808674,0.501960817233);
#1117 = CURVE_STYLE('',#1118,POSITIVE_LENGTH_MEASURE(0.1),#1119);
#1118 = DRAUGHTING_PRE_DEFINED_CURVE_FONT('continuous');
#1119 = COLOUR_RGB('',9.803921802644E-02,9.803921802644E-02,
  9.803921802644E-02);
ENDSEC;
END-ISO-10303-21;
