ISO-10303-21;
HEADER;
FILE_DESCRIPTION(('FreeCAD Model'),'2;1');
FILE_NAME('Open CASCADE Shape Model','2025-11-22T03:43:12',(''),(''),
  'Open CASCADE STEP processor 7.8','FreeCAD','Unknown');
FILE_SCHEMA(('AUTOMOTIVE_DESIGN { 1 0 10303 214 1 1 1 1 }'));
ENDSEC;
DATA;
#1 = APPLICATION_PROTOCOL_DEFINITION('international standard',
  'automotive_design',2000,#2);
#2 = APPLICATION_CONTEXT(
  'core data for automotive mechanical design processes');
#3 = SHAPE_DEFINITION_REPRESENTATION(#4,#10);
#4 = PRODUCT_DEFINITION_SHAPE('','',#5);
#5 = PRODUCT_DEFINITION('design','',#6,#9);
#6 = PRODUCT_DEFINITION_FORMATION('','',#7);
#7 = PRODUCT('Cuerpo','Cuerpo','',(#8));
#8 = PRODUCT_CONTEXT('',#2,'mechanical');
#9 = PRODUCT_DEFINITION_CONTEXT('part definition',#2,'design');
#10 = ADVANCED_BREP_SHAPE_REPRESENTATION('',(#11,#15),#548);
#11 = AXIS2_PLACEMENT_3D('',#12,#13,#14);
#12 = CARTESIAN_POINT('',(0.,0.,0.));
#13 = DIRECTION('',(0.,0.,1.));
#14 = DIRECTION('',(1.,0.,-0.));
#15 = MANIFOLD_SOLID_BREP('',#16);
#16 = CLOSED_SHELL('',(#17,#45,#70,#95,#120,#179,#188,#212,#252,#269,
    #293,#333,#350,#400,#416,#447,#464,#506,#517,#528,#538));
#17 = ADVANCED_FACE('',(#18,#29),#40,.T.);
#18 = FACE_BOUND('',#19,.T.);
#19 = EDGE_LOOP('',(#20));
#20 = ORIENTED_EDGE('',*,*,#21,.F.);
#21 = EDGE_CURVE('',#22,#22,#24,.T.);
#22 = VERTEX_POINT('',#23);
#23 = CARTESIAN_POINT('',(-73.55,10.,0.));
#24 = CIRCLE('',#25,73.55);
#25 = AXIS2_PLACEMENT_3D('',#26,#27,#28);
#26 = CARTESIAN_POINT('',(0.,10.,0.));
#27 = DIRECTION('',(0.,1.,-0.));
#28 = DIRECTION('',(-1.,0.,0.));
#29 = FACE_BOUND('',#30,.T.);
#30 = EDGE_LOOP('',(#31));
#31 = ORIENTED_EDGE('',*,*,#32,.T.);
#32 = EDGE_CURVE('',#33,#33,#35,.T.);
#33 = VERTEX_POINT('',#34);
#34 = CARTESIAN_POINT('',(-75.,10.,-1.110223024625E-15));
#35 = CIRCLE('',#36,75.);
#36 = AXIS2_PLACEMENT_3D('',#37,#38,#39);
#37 = CARTESIAN_POINT('',(0.,10.,-1.110223024625E-15));
#38 = DIRECTION('',(0.,1.,-2.22044604925E-16));
#39 = DIRECTION('',(-1.,0.,0.));
#40 = PLANE('',#41);
#41 = AXIS2_PLACEMENT_3D('',#42,#43,#44);
#42 = CARTESIAN_POINT('',(1.166882246434E-14,10.,4.95688963241E-16));
#43 = DIRECTION('',(0.,1.,0.));
#44 = DIRECTION('',(0.,0.,1.));
#45 = ADVANCED_FACE('',(#46),#65,.F.);
#46 = FACE_BOUND('',#47,.T.);
#47 = EDGE_LOOP('',(#48,#56,#57,#58));
#48 = ORIENTED_EDGE('',*,*,#49,.F.);
#49 = EDGE_CURVE('',#22,#50,#52,.T.);
#50 = VERTEX_POINT('',#51);
#51 = CARTESIAN_POINT('',(-70.,6.45,0.));
#52 = LINE('',#53,#54);
#53 = CARTESIAN_POINT('',(-70.,6.45,0.));
#54 = VECTOR('',#55,1.);
#55 = DIRECTION('',(0.707106781187,-0.707106781187,0.));
#56 = ORIENTED_EDGE('',*,*,#21,.T.);
#57 = ORIENTED_EDGE('',*,*,#49,.T.);
#58 = ORIENTED_EDGE('',*,*,#59,.F.);
#59 = EDGE_CURVE('',#50,#50,#60,.T.);
#60 = CIRCLE('',#61,70.);
#61 = AXIS2_PLACEMENT_3D('',#62,#63,#64);
#62 = CARTESIAN_POINT('',(0.,6.45,0.));
#63 = DIRECTION('',(0.,1.,-0.));
#64 = DIRECTION('',(-1.,0.,0.));
#65 = CONICAL_SURFACE('',#66,70.,0.785398163397);
#66 = AXIS2_PLACEMENT_3D('',#67,#68,#69);
#67 = CARTESIAN_POINT('',(0.,6.45,0.));
#68 = DIRECTION('',(0.,1.,0.));
#69 = DIRECTION('',(-1.,0.,0.));
#70 = ADVANCED_FACE('',(#71),#90,.T.);
#71 = FACE_BOUND('',#72,.F.);
#72 = EDGE_LOOP('',(#73,#81,#82,#83));
#73 = ORIENTED_EDGE('',*,*,#74,.T.);
#74 = EDGE_CURVE('',#75,#33,#77,.T.);
#75 = VERTEX_POINT('',#76);
#76 = CARTESIAN_POINT('',(-75.,5.,0.));
#77 = LINE('',#78,#79);
#78 = CARTESIAN_POINT('',(-75.,5.,0.));
#79 = VECTOR('',#80,1.);
#80 = DIRECTION('',(0.,1.,-2.22044604925E-16));
#81 = ORIENTED_EDGE('',*,*,#32,.T.);
#82 = ORIENTED_EDGE('',*,*,#74,.F.);
#83 = ORIENTED_EDGE('',*,*,#84,.F.);
#84 = EDGE_CURVE('',#75,#75,#85,.T.);
#85 = CIRCLE('',#86,75.);
#86 = AXIS2_PLACEMENT_3D('',#87,#88,#89);
#87 = CARTESIAN_POINT('',(0.,5.,0.));
#88 = DIRECTION('',(0.,1.,-2.22044604925E-16));
#89 = DIRECTION('',(-1.,0.,0.));
#90 = CYLINDRICAL_SURFACE('',#91,75.);
#91 = AXIS2_PLACEMENT_3D('',#92,#93,#94);
#92 = CARTESIAN_POINT('',(0.,5.,0.));
#93 = DIRECTION('',(0.,-1.,2.22044604925E-16));
#94 = DIRECTION('',(-1.,0.,0.));
#95 = ADVANCED_FACE('',(#96),#115,.F.);
#96 = FACE_BOUND('',#97,.F.);
#97 = EDGE_LOOP('',(#98,#106,#113,#114));
#98 = ORIENTED_EDGE('',*,*,#99,.T.);
#99 = EDGE_CURVE('',#50,#100,#102,.T.);
#100 = VERTEX_POINT('',#101);
#101 = CARTESIAN_POINT('',(-70.,6.,8.881784197001E-16));
#102 = LINE('',#103,#104);
#103 = CARTESIAN_POINT('',(-70.,10.,0.));
#104 = VECTOR('',#105,1.);
#105 = DIRECTION('',(0.,-1.,2.22044604925E-16));
#106 = ORIENTED_EDGE('',*,*,#107,.T.);
#107 = EDGE_CURVE('',#100,#100,#108,.T.);
#108 = CIRCLE('',#109,70.);
#109 = AXIS2_PLACEMENT_3D('',#110,#111,#112);
#110 = CARTESIAN_POINT('',(0.,6.,8.881784197001E-16));
#111 = DIRECTION('',(0.,1.,-2.22044604925E-16));
#112 = DIRECTION('',(-1.,0.,0.));
#113 = ORIENTED_EDGE('',*,*,#99,.F.);
#114 = ORIENTED_EDGE('',*,*,#59,.F.);
#115 = CYLINDRICAL_SURFACE('',#116,70.);
#116 = AXIS2_PLACEMENT_3D('',#117,#118,#119);
#117 = CARTESIAN_POINT('',(0.,10.,0.));
#118 = DIRECTION('',(0.,1.,-2.22044604925E-16));
#119 = DIRECTION('',(-1.,0.,0.));
#120 = ADVANCED_FACE('',(#121,#124),#174,.F.);
#121 = FACE_BOUND('',#122,.F.);
#122 = EDGE_LOOP('',(#123));
#123 = ORIENTED_EDGE('',*,*,#84,.T.);
#124 = FACE_BOUND('',#125,.F.);
#125 = EDGE_LOOP('',(#126,#136,#144,#152,#160,#168));
#126 = ORIENTED_EDGE('',*,*,#127,.F.);
#127 = EDGE_CURVE('',#128,#130,#132,.T.);
#128 = VERTEX_POINT('',#129);
#129 = CARTESIAN_POINT('',(0.,5.,10.));
#130 = VERTEX_POINT('',#131);
#131 = CARTESIAN_POINT('',(5.,5.,10.));
#132 = LINE('',#133,#134);
#133 = CARTESIAN_POINT('',(-5.,5.,10.));
#134 = VECTOR('',#135,1.);
#135 = DIRECTION('',(1.,0.,0.));
#136 = ORIENTED_EDGE('',*,*,#137,.F.);
#137 = EDGE_CURVE('',#138,#128,#140,.T.);
#138 = VERTEX_POINT('',#139);
#139 = CARTESIAN_POINT('',(-5.,5.,10.));
#140 = LINE('',#141,#142);
#141 = CARTESIAN_POINT('',(-5.,5.,10.));
#142 = VECTOR('',#143,1.);
#143 = DIRECTION('',(1.,0.,0.));
#144 = ORIENTED_EDGE('',*,*,#145,.T.);
#145 = EDGE_CURVE('',#138,#146,#148,.T.);
#146 = VERTEX_POINT('',#147);
#147 = CARTESIAN_POINT('',(-5.,5.,-10.));
#148 = LINE('',#149,#150);
#149 = CARTESIAN_POINT('',(-5.,5.,0.));
#150 = VECTOR('',#151,1.);
#151 = DIRECTION('',(0.,0.,-1.));
#152 = ORIENTED_EDGE('',*,*,#153,.T.);
#153 = EDGE_CURVE('',#146,#154,#156,.T.);
#154 = VERTEX_POINT('',#155);
#155 = CARTESIAN_POINT('',(4.076587413025E-13,5.,-10.));
#156 = LINE('',#157,#158);
#157 = CARTESIAN_POINT('',(-5.,5.,-10.));
#158 = VECTOR('',#159,1.);
#159 = DIRECTION('',(1.,0.,0.));
#160 = ORIENTED_EDGE('',*,*,#161,.T.);
#161 = EDGE_CURVE('',#154,#162,#164,.T.);
#162 = VERTEX_POINT('',#163);
#163 = CARTESIAN_POINT('',(5.,5.,-10.));
#164 = LINE('',#165,#166);
#165 = CARTESIAN_POINT('',(-5.,5.,-10.));
#166 = VECTOR('',#167,1.);
#167 = DIRECTION('',(1.,0.,0.));
#168 = ORIENTED_EDGE('',*,*,#169,.T.);
#169 = EDGE_CURVE('',#162,#130,#170,.T.);
#170 = LINE('',#171,#172);
#171 = CARTESIAN_POINT('',(5.,5.,0.));
#172 = VECTOR('',#173,1.);
#173 = DIRECTION('',(0.,0.,1.));
#174 = PLANE('',#175);
#175 = AXIS2_PLACEMENT_3D('',#176,#177,#178);
#176 = CARTESIAN_POINT('',(1.166882246434E-14,5.,1.605911987866E-15));
#177 = DIRECTION('',(0.,1.,0.));
#178 = DIRECTION('',(0.,0.,1.));
#179 = ADVANCED_FACE('',(#180),#183,.T.);
#180 = FACE_BOUND('',#181,.T.);
#181 = EDGE_LOOP('',(#182));
#182 = ORIENTED_EDGE('',*,*,#107,.T.);
#183 = PLANE('',#184);
#184 = AXIS2_PLACEMENT_3D('',#185,#186,#187);
#185 = CARTESIAN_POINT('',(2.500461956644E-15,6.,3.031593134977E-15));
#186 = DIRECTION('',(0.,1.,-2.344183084353E-16));
#187 = DIRECTION('',(0.,2.344183084353E-16,1.));
#188 = ADVANCED_FACE('',(#189),#207,.T.);
#189 = FACE_BOUND('',#190,.T.);
#190 = EDGE_LOOP('',(#191,#192,#201));
#191 = ORIENTED_EDGE('',*,*,#127,.F.);
#192 = ORIENTED_EDGE('',*,*,#193,.T.);
#193 = EDGE_CURVE('',#128,#194,#196,.T.);
#194 = VERTEX_POINT('',#195);
#195 = CARTESIAN_POINT('',(5.,0.,10.));
#196 = CIRCLE('',#197,5.);
#197 = AXIS2_PLACEMENT_3D('',#198,#199,#200);
#198 = CARTESIAN_POINT('',(0.,0.,10.));
#199 = DIRECTION('',(0.,0.,-1.));
#200 = DIRECTION('',(1.,0.,0.));
#201 = ORIENTED_EDGE('',*,*,#202,.F.);
#202 = EDGE_CURVE('',#130,#194,#203,.T.);
#203 = LINE('',#204,#205);
#204 = CARTESIAN_POINT('',(5.,5.,10.));
#205 = VECTOR('',#206,1.);
#206 = DIRECTION('',(0.,-1.,0.));
#207 = PLANE('',#208);
#208 = AXIS2_PLACEMENT_3D('',#209,#210,#211);
#209 = CARTESIAN_POINT('',(0.,0.,10.));
#210 = DIRECTION('',(0.,0.,1.));
#211 = DIRECTION('',(1.,0.,0.));
#212 = ADVANCED_FACE('',(#213),#247,.T.);
#213 = FACE_BOUND('',#214,.T.);
#214 = EDGE_LOOP('',(#215,#216,#217,#225,#233,#241));
#215 = ORIENTED_EDGE('',*,*,#169,.T.);
#216 = ORIENTED_EDGE('',*,*,#202,.T.);
#217 = ORIENTED_EDGE('',*,*,#218,.T.);
#218 = EDGE_CURVE('',#194,#219,#221,.T.);
#219 = VERTEX_POINT('',#220);
#220 = CARTESIAN_POINT('',(5.,-5.,10.));
#221 = LINE('',#222,#223);
#222 = CARTESIAN_POINT('',(5.,5.,10.));
#223 = VECTOR('',#224,1.);
#224 = DIRECTION('',(0.,-1.,0.));
#225 = ORIENTED_EDGE('',*,*,#226,.F.);
#226 = EDGE_CURVE('',#227,#219,#229,.T.);
#227 = VERTEX_POINT('',#228);
#228 = CARTESIAN_POINT('',(5.,-5.,-10.));
#229 = LINE('',#230,#231);
#230 = CARTESIAN_POINT('',(5.,-5.,0.));
#231 = VECTOR('',#232,1.);
#232 = DIRECTION('',(0.,0.,1.));
#233 = ORIENTED_EDGE('',*,*,#234,.F.);
#234 = EDGE_CURVE('',#235,#227,#237,.T.);
#235 = VERTEX_POINT('',#236);
#236 = CARTESIAN_POINT('',(5.,0.,-10.));
#237 = LINE('',#238,#239);
#238 = CARTESIAN_POINT('',(5.,5.,-10.));
#239 = VECTOR('',#240,1.);
#240 = DIRECTION('',(0.,-1.,0.));
#241 = ORIENTED_EDGE('',*,*,#242,.F.);
#242 = EDGE_CURVE('',#162,#235,#243,.T.);
#243 = LINE('',#244,#245);
#244 = CARTESIAN_POINT('',(5.,5.,-10.));
#245 = VECTOR('',#246,1.);
#246 = DIRECTION('',(0.,-1.,0.));
#247 = PLANE('',#248);
#248 = AXIS2_PLACEMENT_3D('',#249,#250,#251);
#249 = CARTESIAN_POINT('',(5.,0.,0.));
#250 = DIRECTION('',(1.,0.,0.));
#251 = DIRECTION('',(0.,0.,1.));
#252 = ADVANCED_FACE('',(#253),#264,.T.);
#253 = FACE_BOUND('',#254,.T.);
#254 = EDGE_LOOP('',(#255,#256,#257));
#255 = ORIENTED_EDGE('',*,*,#161,.T.);
#256 = ORIENTED_EDGE('',*,*,#242,.T.);
#257 = ORIENTED_EDGE('',*,*,#258,.F.);
#258 = EDGE_CURVE('',#154,#235,#259,.T.);
#259 = CIRCLE('',#260,5.);
#260 = AXIS2_PLACEMENT_3D('',#261,#262,#263);
#261 = CARTESIAN_POINT('',(0.,0.,-10.));
#262 = DIRECTION('',(0.,0.,-1.));
#263 = DIRECTION('',(1.,0.,0.));
#264 = PLANE('',#265);
#265 = AXIS2_PLACEMENT_3D('',#266,#267,#268);
#266 = CARTESIAN_POINT('',(5.2E-16,-9.E-17,-10.));
#267 = DIRECTION('',(-0.,-0.,-1.));
#268 = DIRECTION('',(-1.,0.,0.));
#269 = ADVANCED_FACE('',(#270),#288,.T.);
#270 = FACE_BOUND('',#271,.T.);
#271 = EDGE_LOOP('',(#272,#273,#282));
#272 = ORIENTED_EDGE('',*,*,#153,.T.);
#273 = ORIENTED_EDGE('',*,*,#274,.F.);
#274 = EDGE_CURVE('',#275,#154,#277,.T.);
#275 = VERTEX_POINT('',#276);
#276 = CARTESIAN_POINT('',(-5.,-7.502509096369E-16,-10.));
#277 = CIRCLE('',#278,5.);
#278 = AXIS2_PLACEMENT_3D('',#279,#280,#281);
#279 = CARTESIAN_POINT('',(0.,0.,-10.));
#280 = DIRECTION('',(0.,0.,-1.));
#281 = DIRECTION('',(1.,0.,0.));
#282 = ORIENTED_EDGE('',*,*,#283,.T.);
#283 = EDGE_CURVE('',#275,#146,#284,.T.);
#284 = LINE('',#285,#286);
#285 = CARTESIAN_POINT('',(-5.,-5.,-10.));
#286 = VECTOR('',#287,1.);
#287 = DIRECTION('',(0.,1.,0.));
#288 = PLANE('',#289);
#289 = AXIS2_PLACEMENT_3D('',#290,#291,#292);
#290 = CARTESIAN_POINT('',(5.2E-16,-9.E-17,-10.));
#291 = DIRECTION('',(-0.,-0.,-1.));
#292 = DIRECTION('',(-1.,0.,0.));
#293 = ADVANCED_FACE('',(#294),#328,.T.);
#294 = FACE_BOUND('',#295,.T.);
#295 = EDGE_LOOP('',(#296,#306,#312,#313,#314,#322));
#296 = ORIENTED_EDGE('',*,*,#297,.T.);
#297 = EDGE_CURVE('',#298,#300,#302,.T.);
#298 = VERTEX_POINT('',#299);
#299 = CARTESIAN_POINT('',(-5.,-5.,10.));
#300 = VERTEX_POINT('',#301);
#301 = CARTESIAN_POINT('',(-5.,0.,10.));
#302 = LINE('',#303,#304);
#303 = CARTESIAN_POINT('',(-5.,-5.,10.));
#304 = VECTOR('',#305,1.);
#305 = DIRECTION('',(0.,1.,0.));
#306 = ORIENTED_EDGE('',*,*,#307,.T.);
#307 = EDGE_CURVE('',#300,#138,#308,.T.);
#308 = LINE('',#309,#310);
#309 = CARTESIAN_POINT('',(-5.,-5.,10.));
#310 = VECTOR('',#311,1.);
#311 = DIRECTION('',(0.,1.,0.));
#312 = ORIENTED_EDGE('',*,*,#145,.T.);
#313 = ORIENTED_EDGE('',*,*,#283,.F.);
#314 = ORIENTED_EDGE('',*,*,#315,.F.);
#315 = EDGE_CURVE('',#316,#275,#318,.T.);
#316 = VERTEX_POINT('',#317);
#317 = CARTESIAN_POINT('',(-5.,-5.,-10.));
#318 = LINE('',#319,#320);
#319 = CARTESIAN_POINT('',(-5.,-5.,-10.));
#320 = VECTOR('',#321,1.);
#321 = DIRECTION('',(0.,1.,0.));
#322 = ORIENTED_EDGE('',*,*,#323,.F.);
#323 = EDGE_CURVE('',#298,#316,#324,.T.);
#324 = LINE('',#325,#326);
#325 = CARTESIAN_POINT('',(-5.,-5.,0.));
#326 = VECTOR('',#327,1.);
#327 = DIRECTION('',(0.,0.,-1.));
#328 = PLANE('',#329);
#329 = AXIS2_PLACEMENT_3D('',#330,#331,#332);
#330 = CARTESIAN_POINT('',(-5.,0.,0.));
#331 = DIRECTION('',(-1.,-0.,-0.));
#332 = DIRECTION('',(0.,0.,-1.));
#333 = ADVANCED_FACE('',(#334),#345,.T.);
#334 = FACE_BOUND('',#335,.T.);
#335 = EDGE_LOOP('',(#336,#337,#338));
#336 = ORIENTED_EDGE('',*,*,#137,.F.);
#337 = ORIENTED_EDGE('',*,*,#307,.F.);
#338 = ORIENTED_EDGE('',*,*,#339,.T.);
#339 = EDGE_CURVE('',#300,#128,#340,.T.);
#340 = CIRCLE('',#341,5.);
#341 = AXIS2_PLACEMENT_3D('',#342,#343,#344);
#342 = CARTESIAN_POINT('',(0.,0.,10.));
#343 = DIRECTION('',(0.,0.,-1.));
#344 = DIRECTION('',(1.,0.,0.));
#345 = PLANE('',#346);
#346 = AXIS2_PLACEMENT_3D('',#347,#348,#349);
#347 = CARTESIAN_POINT('',(0.,0.,10.));
#348 = DIRECTION('',(0.,0.,1.));
#349 = DIRECTION('',(1.,0.,0.));
#350 = ADVANCED_FACE('',(#351),#395,.T.);
#351 = FACE_BOUND('',#352,.F.);
#352 = EDGE_LOOP('',(#353,#362,#363,#364,#371,#380,#387,#388));
#353 = ORIENTED_EDGE('',*,*,#354,.T.);
#354 = EDGE_CURVE('',#355,#300,#357,.T.);
#355 = VERTEX_POINT('',#356);
#356 = CARTESIAN_POINT('',(0.,-5.,10.));
#357 = CIRCLE('',#358,5.);
#358 = AXIS2_PLACEMENT_3D('',#359,#360,#361);
#359 = CARTESIAN_POINT('',(0.,0.,10.));
#360 = DIRECTION('',(0.,0.,-1.));
#361 = DIRECTION('',(1.,0.,0.));
#362 = ORIENTED_EDGE('',*,*,#339,.T.);
#363 = ORIENTED_EDGE('',*,*,#193,.T.);
#364 = ORIENTED_EDGE('',*,*,#365,.F.);
#365 = EDGE_CURVE('',#366,#194,#368,.T.);
#366 = VERTEX_POINT('',#367);
#367 = CARTESIAN_POINT('',(5.,0.,20.));
#368 = B_SPLINE_CURVE_WITH_KNOTS('',1,(#369,#370),.UNSPECIFIED.,.F.,.F.,
  (2,2),(-20.,-10.),.PIECEWISE_BEZIER_KNOTS.);
#369 = CARTESIAN_POINT('',(5.,-1.224646799147E-15,20.));
#370 = CARTESIAN_POINT('',(5.,-1.224646799147E-15,10.));
#371 = ORIENTED_EDGE('',*,*,#372,.T.);
#372 = EDGE_CURVE('',#366,#373,#375,.T.);
#373 = VERTEX_POINT('',#374);
#374 = CARTESIAN_POINT('',(3.061616997868E-16,5.,20.));
#375 = CIRCLE('',#376,5.);
#376 = AXIS2_PLACEMENT_3D('',#377,#378,#379);
#377 = CARTESIAN_POINT('',(0.,0.,20.));
#378 = DIRECTION('',(0.,0.,1.));
#379 = DIRECTION('',(1.,0.,0.));
#380 = ORIENTED_EDGE('',*,*,#381,.T.);
#381 = EDGE_CURVE('',#373,#366,#382,.T.);
#382 = CIRCLE('',#383,5.);
#383 = AXIS2_PLACEMENT_3D('',#384,#385,#386);
#384 = CARTESIAN_POINT('',(0.,0.,20.));
#385 = DIRECTION('',(0.,0.,1.));
#386 = DIRECTION('',(1.,0.,0.));
#387 = ORIENTED_EDGE('',*,*,#365,.T.);
#388 = ORIENTED_EDGE('',*,*,#389,.T.);
#389 = EDGE_CURVE('',#194,#355,#390,.T.);
#390 = CIRCLE('',#391,5.);
#391 = AXIS2_PLACEMENT_3D('',#392,#393,#394);
#392 = CARTESIAN_POINT('',(0.,0.,10.));
#393 = DIRECTION('',(0.,0.,-1.));
#394 = DIRECTION('',(1.,0.,0.));
#395 = CYLINDRICAL_SURFACE('',#396,5.);
#396 = AXIS2_PLACEMENT_3D('',#397,#398,#399);
#397 = CARTESIAN_POINT('',(0.,0.,0.));
#398 = DIRECTION('',(-0.,-0.,-1.));
#399 = DIRECTION('',(1.,0.,0.));
#400 = ADVANCED_FACE('',(#401),#411,.T.);
#401 = FACE_BOUND('',#402,.T.);
#402 = EDGE_LOOP('',(#403,#404,#405));
#403 = ORIENTED_EDGE('',*,*,#218,.F.);
#404 = ORIENTED_EDGE('',*,*,#389,.T.);
#405 = ORIENTED_EDGE('',*,*,#406,.F.);
#406 = EDGE_CURVE('',#219,#355,#407,.T.);
#407 = LINE('',#408,#409);
#408 = CARTESIAN_POINT('',(5.,-5.,10.));
#409 = VECTOR('',#410,1.);
#410 = DIRECTION('',(-1.,0.,0.));
#411 = PLANE('',#412);
#412 = AXIS2_PLACEMENT_3D('',#413,#414,#415);
#413 = CARTESIAN_POINT('',(0.,0.,10.));
#414 = DIRECTION('',(0.,0.,1.));
#415 = DIRECTION('',(1.,0.,0.));
#416 = ADVANCED_FACE('',(#417),#442,.T.);
#417 = FACE_BOUND('',#418,.T.);
#418 = EDGE_LOOP('',(#419,#420,#421,#427,#428,#436));
#419 = ORIENTED_EDGE('',*,*,#226,.T.);
#420 = ORIENTED_EDGE('',*,*,#406,.T.);
#421 = ORIENTED_EDGE('',*,*,#422,.T.);
#422 = EDGE_CURVE('',#355,#298,#423,.T.);
#423 = LINE('',#424,#425);
#424 = CARTESIAN_POINT('',(5.,-5.,10.));
#425 = VECTOR('',#426,1.);
#426 = DIRECTION('',(-1.,0.,0.));
#427 = ORIENTED_EDGE('',*,*,#323,.T.);
#428 = ORIENTED_EDGE('',*,*,#429,.F.);
#429 = EDGE_CURVE('',#430,#316,#432,.T.);
#430 = VERTEX_POINT('',#431);
#431 = CARTESIAN_POINT('',(3.998333697149E-13,-5.,-10.));
#432 = LINE('',#433,#434);
#433 = CARTESIAN_POINT('',(5.,-5.,-10.));
#434 = VECTOR('',#435,1.);
#435 = DIRECTION('',(-1.,0.,0.));
#436 = ORIENTED_EDGE('',*,*,#437,.F.);
#437 = EDGE_CURVE('',#227,#430,#438,.T.);
#438 = LINE('',#439,#440);
#439 = CARTESIAN_POINT('',(5.,-5.,-10.));
#440 = VECTOR('',#441,1.);
#441 = DIRECTION('',(-1.,0.,0.));
#442 = PLANE('',#443);
#443 = AXIS2_PLACEMENT_3D('',#444,#445,#446);
#444 = CARTESIAN_POINT('',(0.,-5.,0.));
#445 = DIRECTION('',(-0.,-1.,-0.));
#446 = DIRECTION('',(0.,0.,-1.));
#447 = ADVANCED_FACE('',(#448),#459,.T.);
#448 = FACE_BOUND('',#449,.T.);
#449 = EDGE_LOOP('',(#450,#457,#458));
#450 = ORIENTED_EDGE('',*,*,#451,.F.);
#451 = EDGE_CURVE('',#235,#430,#452,.T.);
#452 = CIRCLE('',#453,5.);
#453 = AXIS2_PLACEMENT_3D('',#454,#455,#456);
#454 = CARTESIAN_POINT('',(0.,0.,-10.));
#455 = DIRECTION('',(0.,0.,-1.));
#456 = DIRECTION('',(1.,0.,0.));
#457 = ORIENTED_EDGE('',*,*,#234,.T.);
#458 = ORIENTED_EDGE('',*,*,#437,.T.);
#459 = PLANE('',#460);
#460 = AXIS2_PLACEMENT_3D('',#461,#462,#463);
#461 = CARTESIAN_POINT('',(5.2E-16,-9.E-17,-10.));
#462 = DIRECTION('',(-0.,-0.,-1.));
#463 = DIRECTION('',(-1.,0.,0.));
#464 = ADVANCED_FACE('',(#465),#501,.T.);
#465 = FACE_BOUND('',#466,.F.);
#466 = EDGE_LOOP('',(#467,#474,#475,#482,#491,#498,#499,#500));
#467 = ORIENTED_EDGE('',*,*,#468,.F.);
#468 = EDGE_CURVE('',#430,#275,#469,.T.);
#469 = CIRCLE('',#470,5.);
#470 = AXIS2_PLACEMENT_3D('',#471,#472,#473);
#471 = CARTESIAN_POINT('',(0.,0.,-10.));
#472 = DIRECTION('',(0.,0.,-1.));
#473 = DIRECTION('',(1.,0.,0.));
#474 = ORIENTED_EDGE('',*,*,#451,.F.);
#475 = ORIENTED_EDGE('',*,*,#476,.F.);
#476 = EDGE_CURVE('',#477,#235,#479,.T.);
#477 = VERTEX_POINT('',#478);
#478 = CARTESIAN_POINT('',(5.,0.,-20.));
#479 = B_SPLINE_CURVE_WITH_KNOTS('',1,(#480,#481),.UNSPECIFIED.,.F.,.F.,
  (2,2),(-10.,0.),.PIECEWISE_BEZIER_KNOTS.);
#480 = CARTESIAN_POINT('',(5.,1.224646799147E-15,-20.));
#481 = CARTESIAN_POINT('',(5.,1.224646799147E-15,-10.));
#482 = ORIENTED_EDGE('',*,*,#483,.T.);
#483 = EDGE_CURVE('',#477,#484,#486,.T.);
#484 = VERTEX_POINT('',#485);
#485 = CARTESIAN_POINT('',(-9.184850993605E-16,5.,-20.));
#486 = CIRCLE('',#487,5.);
#487 = AXIS2_PLACEMENT_3D('',#488,#489,#490);
#488 = CARTESIAN_POINT('',(0.,0.,-20.));
#489 = DIRECTION('',(0.,0.,-1.));
#490 = DIRECTION('',(1.,0.,0.));
#491 = ORIENTED_EDGE('',*,*,#492,.T.);
#492 = EDGE_CURVE('',#484,#477,#493,.T.);
#493 = CIRCLE('',#494,5.);
#494 = AXIS2_PLACEMENT_3D('',#495,#496,#497);
#495 = CARTESIAN_POINT('',(0.,0.,-20.));
#496 = DIRECTION('',(0.,0.,-1.));
#497 = DIRECTION('',(1.,0.,0.));
#498 = ORIENTED_EDGE('',*,*,#476,.T.);
#499 = ORIENTED_EDGE('',*,*,#258,.F.);
#500 = ORIENTED_EDGE('',*,*,#274,.F.);
#501 = CYLINDRICAL_SURFACE('',#502,5.);
#502 = AXIS2_PLACEMENT_3D('',#503,#504,#505);
#503 = CARTESIAN_POINT('',(0.,0.,-10.));
#504 = DIRECTION('',(0.,0.,1.));
#505 = DIRECTION('',(1.,0.,0.));
#506 = ADVANCED_FACE('',(#507),#512,.T.);
#507 = FACE_BOUND('',#508,.T.);
#508 = EDGE_LOOP('',(#509,#510,#511));
#509 = ORIENTED_EDGE('',*,*,#354,.T.);
#510 = ORIENTED_EDGE('',*,*,#297,.F.);
#511 = ORIENTED_EDGE('',*,*,#422,.F.);
#512 = PLANE('',#513);
#513 = AXIS2_PLACEMENT_3D('',#514,#515,#516);
#514 = CARTESIAN_POINT('',(0.,0.,10.));
#515 = DIRECTION('',(0.,0.,1.));
#516 = DIRECTION('',(1.,0.,0.));
#517 = ADVANCED_FACE('',(#518),#523,.T.);
#518 = FACE_BOUND('',#519,.T.);
#519 = EDGE_LOOP('',(#520,#521,#522));
#520 = ORIENTED_EDGE('',*,*,#468,.F.);
#521 = ORIENTED_EDGE('',*,*,#429,.T.);
#522 = ORIENTED_EDGE('',*,*,#315,.T.);
#523 = PLANE('',#524);
#524 = AXIS2_PLACEMENT_3D('',#525,#526,#527);
#525 = CARTESIAN_POINT('',(5.2E-16,-9.E-17,-10.));
#526 = DIRECTION('',(-0.,-0.,-1.));
#527 = DIRECTION('',(-1.,0.,0.));
#528 = ADVANCED_FACE('',(#529),#533,.T.);
#529 = FACE_BOUND('',#530,.T.);
#530 = EDGE_LOOP('',(#531,#532));
#531 = ORIENTED_EDGE('',*,*,#372,.T.);
#532 = ORIENTED_EDGE('',*,*,#381,.T.);
#533 = PLANE('',#534);
#534 = AXIS2_PLACEMENT_3D('',#535,#536,#537);
#535 = CARTESIAN_POINT('',(-2.7E-16,7.E-17,20.));
#536 = DIRECTION('',(0.,0.,1.));
#537 = DIRECTION('',(1.,0.,0.));
#538 = ADVANCED_FACE('',(#539),#543,.F.);
#539 = FACE_BOUND('',#540,.T.);
#540 = EDGE_LOOP('',(#541,#542));
#541 = ORIENTED_EDGE('',*,*,#483,.T.);
#542 = ORIENTED_EDGE('',*,*,#492,.T.);
#543 = PLANE('',#544);
#544 = AXIS2_PLACEMENT_3D('',#545,#546,#547);
#545 = CARTESIAN_POINT('',(-2.734880265079E-16,-6.938022664999E-17,-20.)
  );
#546 = DIRECTION('',(0.,0.,1.));
#547 = DIRECTION('',(1.,0.,0.));
#548 = ( GEOMETRIC_REPRESENTATION_CONTEXT(3) 
GLOBAL_UNCERTAINTY_ASSIGNED_CONTEXT((#552)) GLOBAL_UNIT_ASSIGNED_CONTEXT
((#549,#550,#551)) REPRESENTATION_CONTEXT('Context #1',
  '3D Context with UNIT and UNCERTAINTY') );
#549 = ( LENGTH_UNIT() NAMED_UNIT(*) SI_UNIT(.MILLI.,.METRE.) );
#550 = ( NAMED_UNIT(*) PLANE_ANGLE_UNIT() SI_UNIT($,.RADIAN.) );
#551 = ( NAMED_UNIT(*) SI_UNIT($,.STERADIAN.) SOLID_ANGLE_UNIT() );
#552 = UNCERTAINTY_MEASURE_WITH_UNIT(LENGTH_MEASURE(2.E-06),#549,
  'distance_accuracy_value','confusion accuracy');
#553 = PRODUCT_RELATED_PRODUCT_CATEGORY('part',$,(#7));
#554 = MECHANICAL_DESIGN_GEOMETRIC_PRESENTATION_REPRESENTATION('',(#555)
  ,#548);
#555 = STYLED_ITEM('color',(#556),#15);
#556 = PRESENTATION_STYLE_ASSIGNMENT((#557,#563));
#557 = SURFACE_STYLE_USAGE(.BOTH.,#558);
#558 = SURFACE_SIDE_STYLE('',(#559));
#559 = SURFACE_STYLE_FILL_AREA(#560);
#560 = FILL_AREA_STYLE('',(#561));
#561 = FILL_AREA_STYLE_COLOUR('',#562);
#562 = COLOUR_RGB('',0.447058818107,0.474509808674,0.501960817233);
#563 = CURVE_STYLE('',#564,POSITIVE_LENGTH_MEASURE(0.1),#565);
#564 = DRAUGHTING_PRE_DEFINED_CURVE_FONT('continuous');
#565 = COLOUR_RGB('',9.803921802644E-02,9.803921802644E-02,
  9.803921802644E-02);
ENDSEC;
END-ISO-10303-21;
